<mxfile host="app.diagrams.net" agent="Mozilla/5.0 (Windows NT 10.0; Win64; x64) AppleWebKit/537.36 (KHTML, like Gecko) Chrome/136.0.0.0 Safari/537.36" version="27.0.5">
  <diagram name="PÃ¡gina-1" id="_lAP68Dz9iwcbvkHMy-g">
    <mxGraphModel dx="1828" dy="556" grid="1" gridSize="10" guides="1" tooltips="1" connect="1" arrows="1" fold="1" page="0" pageScale="1" pageWidth="827" pageHeight="1169" math="0" shadow="0">
      <root>
        <mxCell id="0" />
        <mxCell id="1" parent="0" />
        <mxCell id="wO5CUgCHzCkX5qgZm7yN-17" value="" style="rounded=0;whiteSpace=wrap;html=1;fillColor=#f5f5f5;strokeColor=#666666;fontColor=#333333;" parent="1" vertex="1">
          <mxGeometry x="-740" y="2390" width="1520" height="580" as="geometry" />
        </mxCell>
        <mxCell id="G7Bpa-2UbpX63X4hn4ga-27" value="" style="rounded=0;whiteSpace=wrap;html=1;fillColor=#f5f5f5;strokeColor=#666666;fontColor=#333333;" parent="1" vertex="1">
          <mxGeometry x="-50" y="620" width="830" height="530" as="geometry" />
        </mxCell>
        <mxCell id="G7Bpa-2UbpX63X4hn4ga-25" value="" style="rounded=0;whiteSpace=wrap;html=1;fillColor=#f5f5f5;strokeColor=#666666;fontColor=#333333;" parent="1" vertex="1">
          <mxGeometry x="-50" y="20" width="890" height="540" as="geometry" />
        </mxCell>
        <mxCell id="IacVwfHOCZXp0VKQCrp--6" value="marca" style="swimlane;fontStyle=0;childLayout=stackLayout;horizontal=1;startSize=30;horizontalStack=0;resizeParent=1;resizeParentMax=0;resizeLast=0;collapsible=1;marginBottom=0;whiteSpace=wrap;html=1;" parent="1" vertex="1">
          <mxGeometry x="650" y="196" width="140" height="90" as="geometry">
            <mxRectangle x="110" y="80" width="80" height="30" as="alternateBounds" />
          </mxGeometry>
        </mxCell>
        <mxCell id="IacVwfHOCZXp0VKQCrp--10" value="id" style="text;strokeColor=none;fillColor=none;align=left;verticalAlign=middle;spacingLeft=4;spacingRight=4;overflow=hidden;points=[[0,0.5],[1,0.5]];portConstraint=eastwest;rotatable=0;whiteSpace=wrap;html=1;" parent="IacVwfHOCZXp0VKQCrp--6" vertex="1">
          <mxGeometry y="30" width="140" height="30" as="geometry" />
        </mxCell>
        <mxCell id="IacVwfHOCZXp0VKQCrp--12" value="nome" style="text;strokeColor=none;fillColor=none;align=left;verticalAlign=middle;spacingLeft=4;spacingRight=4;overflow=hidden;points=[[0,0.5],[1,0.5]];portConstraint=eastwest;rotatable=0;whiteSpace=wrap;html=1;" parent="IacVwfHOCZXp0VKQCrp--6" vertex="1">
          <mxGeometry y="60" width="140" height="30" as="geometry" />
        </mxCell>
        <mxCell id="IacVwfHOCZXp0VKQCrp--13" value="proprietario" style="swimlane;fontStyle=0;childLayout=stackLayout;horizontal=1;startSize=30;horizontalStack=0;resizeParent=1;resizeParentMax=0;resizeLast=0;collapsible=1;marginBottom=0;whiteSpace=wrap;html=1;" parent="1" vertex="1">
          <mxGeometry x="650" y="30" width="140" height="120" as="geometry">
            <mxRectangle x="360" y="50" width="90" height="30" as="alternateBounds" />
          </mxGeometry>
        </mxCell>
        <mxCell id="IacVwfHOCZXp0VKQCrp--14" value="id" style="text;strokeColor=none;fillColor=none;align=left;verticalAlign=middle;spacingLeft=4;spacingRight=4;overflow=hidden;points=[[0,0.5],[1,0.5]];portConstraint=eastwest;rotatable=0;whiteSpace=wrap;html=1;" parent="IacVwfHOCZXp0VKQCrp--13" vertex="1">
          <mxGeometry y="30" width="140" height="30" as="geometry" />
        </mxCell>
        <mxCell id="G7Bpa-2UbpX63X4hn4ga-7" value="nome" style="text;strokeColor=none;fillColor=none;align=left;verticalAlign=middle;spacingLeft=4;spacingRight=4;overflow=hidden;points=[[0,0.5],[1,0.5]];portConstraint=eastwest;rotatable=0;whiteSpace=wrap;html=1;" parent="IacVwfHOCZXp0VKQCrp--13" vertex="1">
          <mxGeometry y="60" width="140" height="30" as="geometry" />
        </mxCell>
        <mxCell id="G7Bpa-2UbpX63X4hn4ga-8" value="cpf" style="text;strokeColor=none;fillColor=none;align=left;verticalAlign=middle;spacingLeft=4;spacingRight=4;overflow=hidden;points=[[0,0.5],[1,0.5]];portConstraint=eastwest;rotatable=0;whiteSpace=wrap;html=1;" parent="IacVwfHOCZXp0VKQCrp--13" vertex="1">
          <mxGeometry y="90" width="140" height="30" as="geometry" />
        </mxCell>
        <mxCell id="IacVwfHOCZXp0VKQCrp--21" value="veiculo&lt;div&gt;&lt;br&gt;&lt;/div&gt;" style="swimlane;fontStyle=0;childLayout=stackLayout;horizontal=1;startSize=30;horizontalStack=0;resizeParent=1;resizeParentMax=0;resizeLast=0;collapsible=1;marginBottom=0;whiteSpace=wrap;html=1;" parent="1" vertex="1">
          <mxGeometry x="300" y="60" width="140" height="210" as="geometry">
            <mxRectangle x="300" y="60" width="70" height="30" as="alternateBounds" />
          </mxGeometry>
        </mxCell>
        <mxCell id="IacVwfHOCZXp0VKQCrp--22" value="id" style="text;strokeColor=none;fillColor=none;align=left;verticalAlign=middle;spacingLeft=4;spacingRight=4;overflow=hidden;points=[[0,0.5],[1,0.5]];portConstraint=eastwest;rotatable=0;whiteSpace=wrap;html=1;labelBackgroundColor=default;" parent="IacVwfHOCZXp0VKQCrp--21" vertex="1">
          <mxGeometry y="30" width="140" height="30" as="geometry" />
        </mxCell>
        <mxCell id="G7Bpa-2UbpX63X4hn4ga-4" value="nome" style="text;strokeColor=none;fillColor=none;align=left;verticalAlign=middle;spacingLeft=4;spacingRight=4;overflow=hidden;points=[[0,0.5],[1,0.5]];portConstraint=eastwest;rotatable=0;whiteSpace=wrap;html=1;labelBackgroundColor=default;" parent="IacVwfHOCZXp0VKQCrp--21" vertex="1">
          <mxGeometry y="60" width="140" height="30" as="geometry" />
        </mxCell>
        <mxCell id="G7Bpa-2UbpX63X4hn4ga-5" value="marca_id" style="text;strokeColor=none;fillColor=none;align=left;verticalAlign=middle;spacingLeft=4;spacingRight=4;overflow=hidden;points=[[0,0.5],[1,0.5]];portConstraint=eastwest;rotatable=0;whiteSpace=wrap;html=1;labelBackgroundColor=default;" parent="IacVwfHOCZXp0VKQCrp--21" vertex="1">
          <mxGeometry y="90" width="140" height="30" as="geometry" />
        </mxCell>
        <mxCell id="G7Bpa-2UbpX63X4hn4ga-6" value="modelo_id" style="text;strokeColor=none;fillColor=none;align=left;verticalAlign=middle;spacingLeft=4;spacingRight=4;overflow=hidden;points=[[0,0.5],[1,0.5]];portConstraint=eastwest;rotatable=0;whiteSpace=wrap;html=1;labelBackgroundColor=default;" parent="IacVwfHOCZXp0VKQCrp--21" vertex="1">
          <mxGeometry y="120" width="140" height="30" as="geometry" />
        </mxCell>
        <mxCell id="G7Bpa-2UbpX63X4hn4ga-10" value="placa" style="text;strokeColor=none;fillColor=none;align=left;verticalAlign=middle;spacingLeft=4;spacingRight=4;overflow=hidden;points=[[0,0.5],[1,0.5]];portConstraint=eastwest;rotatable=0;whiteSpace=wrap;html=1;labelBackgroundColor=default;" parent="IacVwfHOCZXp0VKQCrp--21" vertex="1">
          <mxGeometry y="150" width="140" height="30" as="geometry" />
        </mxCell>
        <mxCell id="G7Bpa-2UbpX63X4hn4ga-67" value="ano_fabricacao" style="text;strokeColor=none;fillColor=none;align=left;verticalAlign=middle;spacingLeft=4;spacingRight=4;overflow=hidden;points=[[0,0.5],[1,0.5]];portConstraint=eastwest;rotatable=0;whiteSpace=wrap;html=1;labelBackgroundColor=default;" parent="IacVwfHOCZXp0VKQCrp--21" vertex="1">
          <mxGeometry y="180" width="140" height="30" as="geometry" />
        </mxCell>
        <mxCell id="IacVwfHOCZXp0VKQCrp--25" value="modelo" style="swimlane;fontStyle=0;childLayout=stackLayout;horizontal=1;startSize=30;horizontalStack=0;resizeParent=1;resizeParentMax=0;resizeLast=0;collapsible=1;marginBottom=0;whiteSpace=wrap;html=1;" parent="1" vertex="1">
          <mxGeometry x="520" y="320" width="140" height="90" as="geometry">
            <mxRectangle x="240" y="200" width="80" height="30" as="alternateBounds" />
          </mxGeometry>
        </mxCell>
        <mxCell id="IacVwfHOCZXp0VKQCrp--26" value="id" style="text;strokeColor=none;fillColor=none;align=left;verticalAlign=middle;spacingLeft=4;spacingRight=4;overflow=hidden;points=[[0,0.5],[1,0.5]];portConstraint=eastwest;rotatable=0;whiteSpace=wrap;html=1;" parent="IacVwfHOCZXp0VKQCrp--25" vertex="1">
          <mxGeometry y="30" width="140" height="30" as="geometry" />
        </mxCell>
        <mxCell id="G7Bpa-2UbpX63X4hn4ga-17" value="nome" style="text;strokeColor=none;fillColor=none;align=left;verticalAlign=middle;spacingLeft=4;spacingRight=4;overflow=hidden;points=[[0,0.5],[1,0.5]];portConstraint=eastwest;rotatable=0;whiteSpace=wrap;html=1;" parent="IacVwfHOCZXp0VKQCrp--25" vertex="1">
          <mxGeometry y="60" width="140" height="30" as="geometry" />
        </mxCell>
        <mxCell id="IacVwfHOCZXp0VKQCrp--31" value="categoria" style="swimlane;fontStyle=0;childLayout=stackLayout;horizontal=1;startSize=26;horizontalStack=0;resizeParent=1;resizeParentMax=0;resizeLast=0;collapsible=1;marginBottom=0;align=center;fontSize=14;" parent="1" vertex="1">
          <mxGeometry x="70" y="200" width="130" height="86" as="geometry">
            <mxRectangle x="70" y="200" width="80" height="30" as="alternateBounds" />
          </mxGeometry>
        </mxCell>
        <mxCell id="IacVwfHOCZXp0VKQCrp--32" value="id" style="text;strokeColor=none;fillColor=none;spacingLeft=4;spacingRight=4;overflow=hidden;rotatable=0;points=[[0,0.5],[1,0.5]];portConstraint=eastwest;fontSize=12;whiteSpace=wrap;html=1;" parent="IacVwfHOCZXp0VKQCrp--31" vertex="1">
          <mxGeometry y="26" width="130" height="30" as="geometry" />
        </mxCell>
        <mxCell id="G7Bpa-2UbpX63X4hn4ga-19" value="nome" style="text;strokeColor=none;fillColor=none;spacingLeft=4;spacingRight=4;overflow=hidden;rotatable=0;points=[[0,0.5],[1,0.5]];portConstraint=eastwest;fontSize=12;whiteSpace=wrap;html=1;" parent="IacVwfHOCZXp0VKQCrp--31" vertex="1">
          <mxGeometry y="56" width="130" height="30" as="geometry" />
        </mxCell>
        <mxCell id="G7Bpa-2UbpX63X4hn4ga-9" style="edgeStyle=none;rounded=0;orthogonalLoop=1;jettySize=auto;html=1;exitX=1;exitY=0.5;exitDx=0;exitDy=0;entryX=0;entryY=0.5;entryDx=0;entryDy=0;" parent="1" source="IacVwfHOCZXp0VKQCrp--22" target="IacVwfHOCZXp0VKQCrp--14" edge="1">
          <mxGeometry relative="1" as="geometry">
            <Array as="points">
              <mxPoint x="480" y="105" />
              <mxPoint x="480" y="75" />
            </Array>
          </mxGeometry>
        </mxCell>
        <mxCell id="G7Bpa-2UbpX63X4hn4ga-11" value="1" style="edgeLabel;html=1;align=center;verticalAlign=middle;resizable=0;points=[];" parent="G7Bpa-2UbpX63X4hn4ga-9" vertex="1" connectable="0">
          <mxGeometry x="-0.8104" y="2" relative="1" as="geometry">
            <mxPoint as="offset" />
          </mxGeometry>
        </mxCell>
        <mxCell id="G7Bpa-2UbpX63X4hn4ga-12" value="1" style="edgeLabel;html=1;align=center;verticalAlign=middle;resizable=0;points=[];" parent="G7Bpa-2UbpX63X4hn4ga-9" vertex="1" connectable="0">
          <mxGeometry x="0.8504" relative="1" as="geometry">
            <mxPoint as="offset" />
          </mxGeometry>
        </mxCell>
        <mxCell id="G7Bpa-2UbpX63X4hn4ga-13" style="edgeStyle=none;rounded=0;orthogonalLoop=1;jettySize=auto;html=1;entryX=0;entryY=0.5;entryDx=0;entryDy=0;exitX=1;exitY=0.5;exitDx=0;exitDy=0;" parent="1" source="IacVwfHOCZXp0VKQCrp--22" target="IacVwfHOCZXp0VKQCrp--26" edge="1">
          <mxGeometry relative="1" as="geometry">
            <mxPoint x="440" y="191" as="sourcePoint" />
            <mxPoint x="503.6400000000001" y="370" as="targetPoint" />
            <Array as="points">
              <mxPoint x="460" y="191" />
              <mxPoint x="480" y="191" />
              <mxPoint x="480" y="365" />
            </Array>
          </mxGeometry>
        </mxCell>
        <mxCell id="G7Bpa-2UbpX63X4hn4ga-14" value="1" style="edgeLabel;html=1;align=center;verticalAlign=middle;resizable=0;points=[];" parent="G7Bpa-2UbpX63X4hn4ga-13" vertex="1" connectable="0">
          <mxGeometry x="-0.8835" y="-1" relative="1" as="geometry">
            <mxPoint as="offset" />
          </mxGeometry>
        </mxCell>
        <mxCell id="G7Bpa-2UbpX63X4hn4ga-15" value="1" style="edgeLabel;html=1;align=center;verticalAlign=middle;resizable=0;points=[];" parent="G7Bpa-2UbpX63X4hn4ga-13" vertex="1" connectable="0">
          <mxGeometry x="0.8882" y="-2" relative="1" as="geometry">
            <mxPoint as="offset" />
          </mxGeometry>
        </mxCell>
        <mxCell id="G7Bpa-2UbpX63X4hn4ga-18" style="edgeStyle=none;rounded=0;orthogonalLoop=1;jettySize=auto;html=1;entryX=0;entryY=0.5;entryDx=0;entryDy=0;exitX=1;exitY=0.5;exitDx=0;exitDy=0;" parent="1" source="IacVwfHOCZXp0VKQCrp--22" target="IacVwfHOCZXp0VKQCrp--10" edge="1">
          <mxGeometry relative="1" as="geometry">
            <mxPoint x="440" y="165" as="sourcePoint" />
            <mxPoint x="730" y="315" as="targetPoint" />
            <Array as="points">
              <mxPoint x="560" y="165" />
              <mxPoint x="560" y="240" />
            </Array>
          </mxGeometry>
        </mxCell>
        <mxCell id="h-aRL1PdhSvuxkFvsWRz-71" value="1" style="edgeLabel;html=1;align=center;verticalAlign=middle;resizable=0;points=[];" parent="G7Bpa-2UbpX63X4hn4ga-18" vertex="1" connectable="0">
          <mxGeometry x="-0.8696" y="-1" relative="1" as="geometry">
            <mxPoint x="-1" as="offset" />
          </mxGeometry>
        </mxCell>
        <mxCell id="h-aRL1PdhSvuxkFvsWRz-72" value="1" style="edgeLabel;html=1;align=center;verticalAlign=middle;resizable=0;points=[];" parent="G7Bpa-2UbpX63X4hn4ga-18" vertex="1" connectable="0">
          <mxGeometry x="0.8984" relative="1" as="geometry">
            <mxPoint as="offset" />
          </mxGeometry>
        </mxCell>
        <mxCell id="G7Bpa-2UbpX63X4hn4ga-20" style="edgeStyle=none;rounded=0;orthogonalLoop=1;jettySize=auto;html=1;entryX=0;entryY=0.5;entryDx=0;entryDy=0;exitX=1;exitY=0.5;exitDx=0;exitDy=0;" parent="1" source="IacVwfHOCZXp0VKQCrp--32" target="G7Bpa-2UbpX63X4hn4ga-4" edge="1">
          <mxGeometry relative="1" as="geometry">
            <Array as="points">
              <mxPoint x="250" y="241" />
              <mxPoint x="250" y="135" />
            </Array>
          </mxGeometry>
        </mxCell>
        <mxCell id="G7Bpa-2UbpX63X4hn4ga-66" value="1" style="edgeLabel;html=1;align=center;verticalAlign=middle;resizable=0;points=[];" parent="G7Bpa-2UbpX63X4hn4ga-20" vertex="1" connectable="0">
          <mxGeometry x="-0.7534" y="-1" relative="1" as="geometry">
            <mxPoint as="offset" />
          </mxGeometry>
        </mxCell>
        <mxCell id="G7Bpa-2UbpX63X4hn4ga-68" value="n" style="edgeLabel;html=1;align=center;verticalAlign=middle;resizable=0;points=[];" parent="G7Bpa-2UbpX63X4hn4ga-20" vertex="1" connectable="0">
          <mxGeometry x="0.7947" y="5" relative="1" as="geometry">
            <mxPoint x="1" as="offset" />
          </mxGeometry>
        </mxCell>
        <mxCell id="G7Bpa-2UbpX63X4hn4ga-26" value="Ex-2(Cadastro-veiculos)" style="rounded=0;whiteSpace=wrap;html=1;" parent="1" vertex="1">
          <mxGeometry x="50" y="20" width="120" height="60" as="geometry" />
        </mxCell>
        <mxCell id="G7Bpa-2UbpX63X4hn4ga-28" value="Ex-3(Biblioteca)" style="rounded=0;whiteSpace=wrap;html=1;" parent="1" vertex="1">
          <mxGeometry x="50" y="650" width="120" height="60" as="geometry" />
        </mxCell>
        <mxCell id="G7Bpa-2UbpX63X4hn4ga-29" value="usuario" style="swimlane;fontStyle=0;childLayout=stackLayout;horizontal=1;startSize=30;horizontalStack=0;resizeParent=1;resizeParentMax=0;resizeLast=0;collapsible=1;marginBottom=0;whiteSpace=wrap;html=1;" parent="1" vertex="1" collapsed="1">
          <mxGeometry x="-30" y="760" width="90" height="30" as="geometry">
            <mxRectangle x="-30" y="760" width="250" height="150" as="alternateBounds" />
          </mxGeometry>
        </mxCell>
        <mxCell id="G7Bpa-2UbpX63X4hn4ga-30" value="id" style="text;strokeColor=none;fillColor=none;align=left;verticalAlign=middle;spacingLeft=4;spacingRight=4;overflow=hidden;points=[[0,0.5],[1,0.5]];portConstraint=eastwest;rotatable=0;whiteSpace=wrap;html=1;" parent="G7Bpa-2UbpX63X4hn4ga-29" vertex="1">
          <mxGeometry y="30" width="250" height="30" as="geometry" />
        </mxCell>
        <mxCell id="G7Bpa-2UbpX63X4hn4ga-58" value="nome" style="text;strokeColor=none;fillColor=none;align=left;verticalAlign=middle;spacingLeft=4;spacingRight=4;overflow=hidden;points=[[0,0.5],[1,0.5]];portConstraint=eastwest;rotatable=0;whiteSpace=wrap;html=1;" parent="G7Bpa-2UbpX63X4hn4ga-29" vertex="1">
          <mxGeometry y="60" width="250" height="30" as="geometry" />
        </mxCell>
        <mxCell id="VjDglddzhyZa91ICOikW-72" value="curso" style="text;strokeColor=none;fillColor=none;align=left;verticalAlign=middle;spacingLeft=4;spacingRight=4;overflow=hidden;points=[[0,0.5],[1,0.5]];portConstraint=eastwest;rotatable=0;whiteSpace=wrap;html=1;" parent="G7Bpa-2UbpX63X4hn4ga-29" vertex="1">
          <mxGeometry y="90" width="250" height="30" as="geometry" />
        </mxCell>
        <mxCell id="VjDglddzhyZa91ICOikW-104" value="tipo(string) =professor,aluno,funcionario" style="text;strokeColor=none;fillColor=none;align=left;verticalAlign=middle;spacingLeft=4;spacingRight=4;overflow=hidden;points=[[0,0.5],[1,0.5]];portConstraint=eastwest;rotatable=0;whiteSpace=wrap;html=1;" parent="G7Bpa-2UbpX63X4hn4ga-29" vertex="1">
          <mxGeometry y="120" width="250" height="30" as="geometry" />
        </mxCell>
        <mxCell id="G7Bpa-2UbpX63X4hn4ga-31" value="obra" style="swimlane;fontStyle=0;childLayout=stackLayout;horizontal=1;startSize=30;horizontalStack=0;resizeParent=1;resizeParentMax=0;resizeLast=0;collapsible=1;marginBottom=0;whiteSpace=wrap;html=1;" parent="1" vertex="1">
          <mxGeometry x="210" y="920" width="140" height="90" as="geometry">
            <mxRectangle x="210" y="920" width="90" height="30" as="alternateBounds" />
          </mxGeometry>
        </mxCell>
        <mxCell id="G7Bpa-2UbpX63X4hn4ga-32" value="id" style="text;strokeColor=none;fillColor=none;align=left;verticalAlign=middle;spacingLeft=4;spacingRight=4;overflow=hidden;points=[[0,0.5],[1,0.5]];portConstraint=eastwest;rotatable=0;whiteSpace=wrap;html=1;" parent="G7Bpa-2UbpX63X4hn4ga-31" vertex="1">
          <mxGeometry y="30" width="140" height="30" as="geometry" />
        </mxCell>
        <mxCell id="G7Bpa-2UbpX63X4hn4ga-59" value="nome" style="text;strokeColor=none;fillColor=none;align=left;verticalAlign=middle;spacingLeft=4;spacingRight=4;overflow=hidden;points=[[0,0.5],[1,0.5]];portConstraint=eastwest;rotatable=0;whiteSpace=wrap;html=1;" parent="G7Bpa-2UbpX63X4hn4ga-31" vertex="1">
          <mxGeometry y="60" width="140" height="30" as="geometry" />
        </mxCell>
        <mxCell id="G7Bpa-2UbpX63X4hn4ga-34" value="idioma" style="swimlane;fontStyle=0;childLayout=stackLayout;horizontal=1;startSize=30;horizontalStack=0;resizeParent=1;resizeParentMax=0;resizeLast=0;collapsible=1;marginBottom=0;whiteSpace=wrap;html=1;" parent="1" vertex="1" collapsed="1">
          <mxGeometry x="580" y="920" width="90" height="30" as="geometry">
            <mxRectangle x="580" y="920" width="140" height="90" as="alternateBounds" />
          </mxGeometry>
        </mxCell>
        <mxCell id="G7Bpa-2UbpX63X4hn4ga-35" value="id" style="text;strokeColor=none;fillColor=none;align=left;verticalAlign=middle;spacingLeft=4;spacingRight=4;overflow=hidden;points=[[0,0.5],[1,0.5]];portConstraint=eastwest;rotatable=0;whiteSpace=wrap;html=1;" parent="G7Bpa-2UbpX63X4hn4ga-34" vertex="1">
          <mxGeometry y="30" width="140" height="30" as="geometry" />
        </mxCell>
        <mxCell id="G7Bpa-2UbpX63X4hn4ga-61" value="nome" style="text;strokeColor=none;fillColor=none;align=left;verticalAlign=middle;spacingLeft=4;spacingRight=4;overflow=hidden;points=[[0,0.5],[1,0.5]];portConstraint=eastwest;rotatable=0;whiteSpace=wrap;html=1;" parent="G7Bpa-2UbpX63X4hn4ga-34" vertex="1">
          <mxGeometry y="60" width="140" height="30" as="geometry" />
        </mxCell>
        <mxCell id="G7Bpa-2UbpX63X4hn4ga-36" value="midia" style="swimlane;fontStyle=0;childLayout=stackLayout;horizontal=1;startSize=30;horizontalStack=0;resizeParent=1;resizeParentMax=0;resizeLast=0;collapsible=1;marginBottom=0;whiteSpace=wrap;html=1;" parent="1" vertex="1" collapsed="1">
          <mxGeometry x="440" y="810" width="90" height="30" as="geometry">
            <mxRectangle x="440" y="810" width="140" height="60" as="alternateBounds" />
          </mxGeometry>
        </mxCell>
        <mxCell id="G7Bpa-2UbpX63X4hn4ga-37" value="id" style="text;strokeColor=none;fillColor=none;align=left;verticalAlign=middle;spacingLeft=4;spacingRight=4;overflow=hidden;points=[[0,0.5],[1,0.5]];portConstraint=eastwest;rotatable=0;whiteSpace=wrap;html=1;" parent="G7Bpa-2UbpX63X4hn4ga-36" vertex="1">
          <mxGeometry y="30" width="140" height="30" as="geometry" />
        </mxCell>
        <mxCell id="G7Bpa-2UbpX63X4hn4ga-38" value="autor" style="swimlane;fontStyle=0;childLayout=stackLayout;horizontal=1;startSize=30;horizontalStack=0;resizeParent=1;resizeParentMax=0;resizeLast=0;collapsible=1;marginBottom=0;whiteSpace=wrap;html=1;" parent="1" vertex="1" collapsed="1">
          <mxGeometry x="450" y="1040" width="90" height="30" as="geometry">
            <mxRectangle x="450" y="1040" width="140" height="90" as="alternateBounds" />
          </mxGeometry>
        </mxCell>
        <mxCell id="G7Bpa-2UbpX63X4hn4ga-39" value="id" style="text;strokeColor=none;fillColor=none;align=left;verticalAlign=middle;spacingLeft=4;spacingRight=4;overflow=hidden;points=[[0,0.5],[1,0.5]];portConstraint=eastwest;rotatable=0;whiteSpace=wrap;html=1;" parent="G7Bpa-2UbpX63X4hn4ga-38" vertex="1">
          <mxGeometry y="30" width="140" height="30" as="geometry" />
        </mxCell>
        <mxCell id="G7Bpa-2UbpX63X4hn4ga-60" value="nome" style="text;strokeColor=none;fillColor=none;align=left;verticalAlign=middle;spacingLeft=4;spacingRight=4;overflow=hidden;points=[[0,0.5],[1,0.5]];portConstraint=eastwest;rotatable=0;whiteSpace=wrap;html=1;" parent="G7Bpa-2UbpX63X4hn4ga-38" vertex="1">
          <mxGeometry y="60" width="140" height="30" as="geometry" />
        </mxCell>
        <mxCell id="G7Bpa-2UbpX63X4hn4ga-40" value="editora" style="swimlane;fontStyle=0;childLayout=stackLayout;horizontal=1;startSize=30;horizontalStack=0;resizeParent=1;resizeParentMax=0;resizeLast=0;collapsible=1;marginBottom=0;whiteSpace=wrap;html=1;" parent="1" vertex="1" collapsed="1">
          <mxGeometry x="630" y="780" width="90" height="30" as="geometry">
            <mxRectangle x="630" y="780" width="140" height="90" as="alternateBounds" />
          </mxGeometry>
        </mxCell>
        <mxCell id="G7Bpa-2UbpX63X4hn4ga-41" value="id" style="text;strokeColor=none;fillColor=none;align=left;verticalAlign=middle;spacingLeft=4;spacingRight=4;overflow=hidden;points=[[0,0.5],[1,0.5]];portConstraint=eastwest;rotatable=0;whiteSpace=wrap;html=1;" parent="G7Bpa-2UbpX63X4hn4ga-40" vertex="1">
          <mxGeometry y="30" width="140" height="30" as="geometry" />
        </mxCell>
        <mxCell id="G7Bpa-2UbpX63X4hn4ga-62" value="nome" style="text;strokeColor=none;fillColor=none;align=left;verticalAlign=middle;spacingLeft=4;spacingRight=4;overflow=hidden;points=[[0,0.5],[1,0.5]];portConstraint=eastwest;rotatable=0;whiteSpace=wrap;html=1;" parent="G7Bpa-2UbpX63X4hn4ga-40" vertex="1">
          <mxGeometry y="60" width="140" height="30" as="geometry" />
        </mxCell>
        <mxCell id="G7Bpa-2UbpX63X4hn4ga-42" value="exemplar" style="swimlane;fontStyle=0;childLayout=stackLayout;horizontal=1;startSize=30;horizontalStack=0;resizeParent=1;resizeParentMax=0;resizeLast=0;collapsible=1;marginBottom=0;whiteSpace=wrap;html=1;" parent="1" vertex="1" collapsed="1">
          <mxGeometry x="510" y="660" width="90" height="30" as="geometry">
            <mxRectangle x="510" y="660" width="140" height="90" as="alternateBounds" />
          </mxGeometry>
        </mxCell>
        <mxCell id="G7Bpa-2UbpX63X4hn4ga-43" value="id" style="text;strokeColor=none;fillColor=none;align=left;verticalAlign=middle;spacingLeft=4;spacingRight=4;overflow=hidden;points=[[0,0.5],[1,0.5]];portConstraint=eastwest;rotatable=0;whiteSpace=wrap;html=1;" parent="G7Bpa-2UbpX63X4hn4ga-42" vertex="1">
          <mxGeometry y="30" width="140" height="30" as="geometry" />
        </mxCell>
        <mxCell id="G7Bpa-2UbpX63X4hn4ga-56" value="nome" style="text;strokeColor=none;fillColor=none;align=left;verticalAlign=middle;spacingLeft=4;spacingRight=4;overflow=hidden;points=[[0,0.5],[1,0.5]];portConstraint=eastwest;rotatable=0;whiteSpace=wrap;html=1;" parent="G7Bpa-2UbpX63X4hn4ga-42" vertex="1">
          <mxGeometry y="60" width="140" height="30" as="geometry" />
        </mxCell>
        <mxCell id="G7Bpa-2UbpX63X4hn4ga-44" value="emprestimo" style="swimlane;fontStyle=0;childLayout=stackLayout;horizontal=1;startSize=30;horizontalStack=0;resizeParent=1;resizeParentMax=0;resizeLast=0;collapsible=1;marginBottom=0;whiteSpace=wrap;html=1;" parent="1" vertex="1" collapsed="1">
          <mxGeometry x="270" y="680" width="90" height="30" as="geometry">
            <mxRectangle x="270" y="680" width="140" height="90" as="alternateBounds" />
          </mxGeometry>
        </mxCell>
        <mxCell id="G7Bpa-2UbpX63X4hn4ga-45" value="id" style="text;strokeColor=none;fillColor=none;align=left;verticalAlign=middle;spacingLeft=4;spacingRight=4;overflow=hidden;points=[[0,0.5],[1,0.5]];portConstraint=eastwest;rotatable=0;whiteSpace=wrap;html=1;" parent="G7Bpa-2UbpX63X4hn4ga-44" vertex="1">
          <mxGeometry y="30" width="140" height="30" as="geometry" />
        </mxCell>
        <mxCell id="G7Bpa-2UbpX63X4hn4ga-57" value="nome" style="text;strokeColor=none;fillColor=none;align=left;verticalAlign=middle;spacingLeft=4;spacingRight=4;overflow=hidden;points=[[0,0.5],[1,0.5]];portConstraint=eastwest;rotatable=0;whiteSpace=wrap;html=1;" parent="G7Bpa-2UbpX63X4hn4ga-44" vertex="1">
          <mxGeometry y="60" width="140" height="30" as="geometry" />
        </mxCell>
        <mxCell id="G7Bpa-2UbpX63X4hn4ga-46" value="" style="edgeStyle=none;rounded=0;orthogonalLoop=1;jettySize=auto;html=1;entryX=0;entryY=0.5;entryDx=0;entryDy=0;exitX=1.014;exitY=0.18;exitDx=0;exitDy=0;exitPerimeter=0;" parent="1" source="G7Bpa-2UbpX63X4hn4ga-32" target="G7Bpa-2UbpX63X4hn4ga-37" edge="1">
          <mxGeometry relative="1" as="geometry">
            <Array as="points">
              <mxPoint x="380" y="955" />
              <mxPoint x="380" y="910" />
              <mxPoint x="380" y="855" />
              <mxPoint x="410" y="855" />
            </Array>
          </mxGeometry>
        </mxCell>
        <mxCell id="VjDglddzhyZa91ICOikW-44" value="1" style="edgeLabel;html=1;align=center;verticalAlign=middle;resizable=0;points=[];" parent="G7Bpa-2UbpX63X4hn4ga-46" vertex="1" connectable="0">
          <mxGeometry x="-0.8628" relative="1" as="geometry">
            <mxPoint as="offset" />
          </mxGeometry>
        </mxCell>
        <mxCell id="VjDglddzhyZa91ICOikW-45" value="n" style="edgeLabel;html=1;align=center;verticalAlign=middle;resizable=0;points=[];" parent="G7Bpa-2UbpX63X4hn4ga-46" vertex="1" connectable="0">
          <mxGeometry x="0.788" y="1" relative="1" as="geometry">
            <mxPoint as="offset" />
          </mxGeometry>
        </mxCell>
        <mxCell id="G7Bpa-2UbpX63X4hn4ga-50" style="edgeStyle=none;rounded=0;orthogonalLoop=1;jettySize=auto;html=1;entryX=0;entryY=0.5;entryDx=0;entryDy=0;exitX=1;exitY=0.5;exitDx=0;exitDy=0;" parent="1" source="G7Bpa-2UbpX63X4hn4ga-30" target="G7Bpa-2UbpX63X4hn4ga-45" edge="1">
          <mxGeometry relative="1" as="geometry">
            <Array as="points">
              <mxPoint x="240" y="805" />
              <mxPoint x="240" y="725" />
            </Array>
          </mxGeometry>
        </mxCell>
        <mxCell id="VjDglddzhyZa91ICOikW-40" value="1" style="edgeLabel;html=1;align=center;verticalAlign=middle;resizable=0;points=[];" parent="G7Bpa-2UbpX63X4hn4ga-50" vertex="1" connectable="0">
          <mxGeometry x="-0.8347" y="-3" relative="1" as="geometry">
            <mxPoint as="offset" />
          </mxGeometry>
        </mxCell>
        <mxCell id="VjDglddzhyZa91ICOikW-41" value="n" style="edgeLabel;html=1;align=center;verticalAlign=middle;resizable=0;points=[];" parent="G7Bpa-2UbpX63X4hn4ga-50" vertex="1" connectable="0">
          <mxGeometry x="0.7888" y="3" relative="1" as="geometry">
            <mxPoint as="offset" />
          </mxGeometry>
        </mxCell>
        <mxCell id="G7Bpa-2UbpX63X4hn4ga-51" style="edgeStyle=none;rounded=0;orthogonalLoop=1;jettySize=auto;html=1;entryX=0;entryY=0.5;entryDx=0;entryDy=0;exitX=1;exitY=0.5;exitDx=0;exitDy=0;" parent="1" source="G7Bpa-2UbpX63X4hn4ga-45" target="G7Bpa-2UbpX63X4hn4ga-43" edge="1">
          <mxGeometry relative="1" as="geometry">
            <Array as="points">
              <mxPoint x="440" y="725" />
              <mxPoint x="440" y="705" />
            </Array>
          </mxGeometry>
        </mxCell>
        <mxCell id="VjDglddzhyZa91ICOikW-42" value="1" style="edgeLabel;html=1;align=center;verticalAlign=middle;resizable=0;points=[];" parent="G7Bpa-2UbpX63X4hn4ga-51" vertex="1" connectable="0">
          <mxGeometry x="0.5892" y="-2" relative="1" as="geometry">
            <mxPoint as="offset" />
          </mxGeometry>
        </mxCell>
        <mxCell id="VjDglddzhyZa91ICOikW-43" value="1" style="edgeLabel;html=1;align=center;verticalAlign=middle;resizable=0;points=[];" parent="G7Bpa-2UbpX63X4hn4ga-51" vertex="1" connectable="0">
          <mxGeometry x="-0.8225" relative="1" as="geometry">
            <mxPoint as="offset" />
          </mxGeometry>
        </mxCell>
        <mxCell id="G7Bpa-2UbpX63X4hn4ga-52" style="edgeStyle=none;rounded=0;orthogonalLoop=1;jettySize=auto;html=1;entryX=0;entryY=0.5;entryDx=0;entryDy=0;exitX=1;exitY=0.5;exitDx=0;exitDy=0;" parent="1" source="G7Bpa-2UbpX63X4hn4ga-37" target="G7Bpa-2UbpX63X4hn4ga-41" edge="1">
          <mxGeometry relative="1" as="geometry">
            <Array as="points">
              <mxPoint x="620" y="855" />
            </Array>
          </mxGeometry>
        </mxCell>
        <mxCell id="VjDglddzhyZa91ICOikW-46" value="1" style="edgeLabel;html=1;align=center;verticalAlign=middle;resizable=0;points=[];" parent="G7Bpa-2UbpX63X4hn4ga-52" vertex="1" connectable="0">
          <mxGeometry x="0.3906" y="2" relative="1" as="geometry">
            <mxPoint x="-1" as="offset" />
          </mxGeometry>
        </mxCell>
        <mxCell id="VjDglddzhyZa91ICOikW-47" value="n" style="edgeLabel;html=1;align=center;verticalAlign=middle;resizable=0;points=[];" parent="G7Bpa-2UbpX63X4hn4ga-52" vertex="1" connectable="0">
          <mxGeometry x="-0.5736" y="2" relative="1" as="geometry">
            <mxPoint x="-1" as="offset" />
          </mxGeometry>
        </mxCell>
        <mxCell id="G7Bpa-2UbpX63X4hn4ga-53" style="edgeStyle=none;rounded=0;orthogonalLoop=1;jettySize=auto;html=1;entryX=0;entryY=0.5;entryDx=0;entryDy=0;exitX=0.999;exitY=0.9;exitDx=0;exitDy=0;exitPerimeter=0;" parent="1" source="G7Bpa-2UbpX63X4hn4ga-32" target="G7Bpa-2UbpX63X4hn4ga-39" edge="1">
          <mxGeometry relative="1" as="geometry">
            <mxPoint x="299" y="975" as="sourcePoint" />
            <Array as="points">
              <mxPoint x="400" y="975" />
              <mxPoint x="400" y="1085" />
            </Array>
          </mxGeometry>
        </mxCell>
        <mxCell id="VjDglddzhyZa91ICOikW-50" value="1" style="edgeLabel;html=1;align=center;verticalAlign=middle;resizable=0;points=[];" parent="G7Bpa-2UbpX63X4hn4ga-53" vertex="1" connectable="0">
          <mxGeometry x="-0.8946" y="-1" relative="1" as="geometry">
            <mxPoint as="offset" />
          </mxGeometry>
        </mxCell>
        <mxCell id="VjDglddzhyZa91ICOikW-51" value="1" style="edgeLabel;html=1;align=center;verticalAlign=middle;resizable=0;points=[];" parent="G7Bpa-2UbpX63X4hn4ga-53" vertex="1" connectable="0">
          <mxGeometry x="0.8467" y="4" relative="1" as="geometry">
            <mxPoint as="offset" />
          </mxGeometry>
        </mxCell>
        <mxCell id="G7Bpa-2UbpX63X4hn4ga-54" style="edgeStyle=none;rounded=0;orthogonalLoop=1;jettySize=auto;html=1;entryX=0;entryY=0.5;entryDx=0;entryDy=0;exitX=1;exitY=0.5;exitDx=0;exitDy=0;" parent="1" source="G7Bpa-2UbpX63X4hn4ga-32" target="G7Bpa-2UbpX63X4hn4ga-35" edge="1">
          <mxGeometry relative="1" as="geometry">
            <Array as="points">
              <mxPoint x="570" y="970" />
            </Array>
          </mxGeometry>
        </mxCell>
        <mxCell id="VjDglddzhyZa91ICOikW-48" value="1" style="edgeLabel;html=1;align=center;verticalAlign=middle;resizable=0;points=[];" parent="G7Bpa-2UbpX63X4hn4ga-54" vertex="1" connectable="0">
          <mxGeometry x="-0.8112" y="-1" relative="1" as="geometry">
            <mxPoint x="-1" y="-1" as="offset" />
          </mxGeometry>
        </mxCell>
        <mxCell id="VjDglddzhyZa91ICOikW-49" value="n" style="edgeLabel;html=1;align=center;verticalAlign=middle;resizable=0;points=[];" parent="G7Bpa-2UbpX63X4hn4ga-54" vertex="1" connectable="0">
          <mxGeometry x="0.7955" y="-1" relative="1" as="geometry">
            <mxPoint as="offset" />
          </mxGeometry>
        </mxCell>
        <mxCell id="VjDglddzhyZa91ICOikW-5" value="" style="rounded=0;whiteSpace=wrap;html=1;fillColor=#f5f5f5;strokeColor=#666666;fontColor=#333333;" parent="1" vertex="1">
          <mxGeometry x="-50" y="1210" width="830" height="550" as="geometry" />
        </mxCell>
        <mxCell id="VjDglddzhyZa91ICOikW-6" value="Ex-4(Controle Estoque)" style="rounded=0;whiteSpace=wrap;html=1;" parent="1" vertex="1">
          <mxGeometry x="-40" y="1220" width="120" height="60" as="geometry" />
        </mxCell>
        <mxCell id="VjDglddzhyZa91ICOikW-7" value="empresa_comercio" style="swimlane;fontStyle=0;childLayout=stackLayout;horizontal=1;startSize=30;horizontalStack=0;resizeParent=1;resizeParentMax=0;resizeLast=0;collapsible=1;marginBottom=0;whiteSpace=wrap;html=1;" parent="1" vertex="1" collapsed="1">
          <mxGeometry x="-30" y="1290" width="90" height="30" as="geometry">
            <mxRectangle x="-30" y="1290" width="140" height="120" as="alternateBounds" />
          </mxGeometry>
        </mxCell>
        <mxCell id="VjDglddzhyZa91ICOikW-8" value="id" style="text;strokeColor=none;fillColor=none;align=left;verticalAlign=middle;spacingLeft=4;spacingRight=4;overflow=hidden;points=[[0,0.5],[1,0.5]];portConstraint=eastwest;rotatable=0;whiteSpace=wrap;html=1;" parent="VjDglddzhyZa91ICOikW-7" vertex="1">
          <mxGeometry y="30" width="140" height="30" as="geometry" />
        </mxCell>
        <mxCell id="VjDglddzhyZa91ICOikW-9" value="nome" style="text;strokeColor=none;fillColor=none;align=left;verticalAlign=middle;spacingLeft=4;spacingRight=4;overflow=hidden;points=[[0,0.5],[1,0.5]];portConstraint=eastwest;rotatable=0;whiteSpace=wrap;html=1;" parent="VjDglddzhyZa91ICOikW-7" vertex="1">
          <mxGeometry y="60" width="140" height="30" as="geometry" />
        </mxCell>
        <mxCell id="VjDglddzhyZa91ICOikW-102" value="cnpj" style="text;strokeColor=none;fillColor=none;align=left;verticalAlign=middle;spacingLeft=4;spacingRight=4;overflow=hidden;points=[[0,0.5],[1,0.5]];portConstraint=eastwest;rotatable=0;whiteSpace=wrap;html=1;" parent="VjDglddzhyZa91ICOikW-7" vertex="1">
          <mxGeometry y="90" width="140" height="30" as="geometry" />
        </mxCell>
        <mxCell id="VjDglddzhyZa91ICOikW-10" value="nota_fiscal" style="swimlane;fontStyle=0;childLayout=stackLayout;horizontal=1;startSize=30;horizontalStack=0;resizeParent=1;resizeParentMax=0;resizeLast=0;collapsible=1;marginBottom=0;whiteSpace=wrap;html=1;" parent="1" vertex="1" collapsed="1">
          <mxGeometry x="-10" y="1440" width="90" height="30" as="geometry">
            <mxRectangle x="-10" y="1440" width="140" height="210" as="alternateBounds" />
          </mxGeometry>
        </mxCell>
        <mxCell id="VjDglddzhyZa91ICOikW-11" value="id" style="text;strokeColor=none;fillColor=none;align=left;verticalAlign=middle;spacingLeft=4;spacingRight=4;overflow=hidden;points=[[0,0.5],[1,0.5]];portConstraint=eastwest;rotatable=0;whiteSpace=wrap;html=1;" parent="VjDglddzhyZa91ICOikW-10" vertex="1">
          <mxGeometry y="30" width="140" height="30" as="geometry" />
        </mxCell>
        <mxCell id="VjDglddzhyZa91ICOikW-12" value="entrada" style="text;strokeColor=none;fillColor=none;align=left;verticalAlign=middle;spacingLeft=4;spacingRight=4;overflow=hidden;points=[[0,0.5],[1,0.5]];portConstraint=eastwest;rotatable=0;whiteSpace=wrap;html=1;" parent="VjDglddzhyZa91ICOikW-10" vertex="1">
          <mxGeometry y="60" width="140" height="30" as="geometry" />
        </mxCell>
        <mxCell id="VjDglddzhyZa91ICOikW-73" value="saida" style="text;strokeColor=none;fillColor=none;align=left;verticalAlign=middle;spacingLeft=4;spacingRight=4;overflow=hidden;points=[[0,0.5],[1,0.5]];portConstraint=eastwest;rotatable=0;whiteSpace=wrap;html=1;" parent="VjDglddzhyZa91ICOikW-10" vertex="1">
          <mxGeometry y="90" width="140" height="30" as="geometry" />
        </mxCell>
        <mxCell id="VjDglddzhyZa91ICOikW-74" value="cliente_id" style="text;strokeColor=none;fillColor=none;align=left;verticalAlign=middle;spacingLeft=4;spacingRight=4;overflow=hidden;points=[[0,0.5],[1,0.5]];portConstraint=eastwest;rotatable=0;whiteSpace=wrap;html=1;" parent="VjDglddzhyZa91ICOikW-10" vertex="1">
          <mxGeometry y="120" width="140" height="30" as="geometry" />
        </mxCell>
        <mxCell id="VjDglddzhyZa91ICOikW-75" value="produto_id" style="text;strokeColor=none;fillColor=none;align=left;verticalAlign=middle;spacingLeft=4;spacingRight=4;overflow=hidden;points=[[0,0.5],[1,0.5]];portConstraint=eastwest;rotatable=0;whiteSpace=wrap;html=1;" parent="VjDglddzhyZa91ICOikW-10" vertex="1">
          <mxGeometry y="150" width="140" height="30" as="geometry" />
        </mxCell>
        <mxCell id="VjDglddzhyZa91ICOikW-96" value="fornecedor_id" style="text;strokeColor=none;fillColor=none;align=left;verticalAlign=middle;spacingLeft=4;spacingRight=4;overflow=hidden;points=[[0,0.5],[1,0.5]];portConstraint=eastwest;rotatable=0;whiteSpace=wrap;html=1;" parent="VjDglddzhyZa91ICOikW-10" vertex="1">
          <mxGeometry y="180" width="140" height="30" as="geometry" />
        </mxCell>
        <mxCell id="VjDglddzhyZa91ICOikW-24" value="almoxarifado" style="swimlane;fontStyle=0;childLayout=stackLayout;horizontal=1;startSize=30;horizontalStack=0;resizeParent=1;resizeParentMax=0;resizeLast=0;collapsible=1;marginBottom=0;whiteSpace=wrap;html=1;" parent="1" vertex="1" collapsed="1">
          <mxGeometry x="220" y="1260" width="90" height="30" as="geometry">
            <mxRectangle x="220" y="1260" width="140" height="90" as="alternateBounds" />
          </mxGeometry>
        </mxCell>
        <mxCell id="VjDglddzhyZa91ICOikW-25" value="id" style="text;strokeColor=none;fillColor=none;align=left;verticalAlign=middle;spacingLeft=4;spacingRight=4;overflow=hidden;points=[[0,0.5],[1,0.5]];portConstraint=eastwest;rotatable=0;whiteSpace=wrap;html=1;" parent="VjDglddzhyZa91ICOikW-24" vertex="1">
          <mxGeometry y="30" width="140" height="30" as="geometry" />
        </mxCell>
        <mxCell id="VjDglddzhyZa91ICOikW-26" value="nome" style="text;strokeColor=none;fillColor=none;align=left;verticalAlign=middle;spacingLeft=4;spacingRight=4;overflow=hidden;points=[[0,0.5],[1,0.5]];portConstraint=eastwest;rotatable=0;whiteSpace=wrap;html=1;" parent="VjDglddzhyZa91ICOikW-24" vertex="1">
          <mxGeometry y="60" width="140" height="30" as="geometry" />
        </mxCell>
        <mxCell id="VjDglddzhyZa91ICOikW-27" value="produto" style="swimlane;fontStyle=0;childLayout=stackLayout;horizontal=1;startSize=30;horizontalStack=0;resizeParent=1;resizeParentMax=0;resizeLast=0;collapsible=1;marginBottom=0;whiteSpace=wrap;html=1;" parent="1" vertex="1" collapsed="1">
          <mxGeometry x="490" y="1260" width="90" height="30" as="geometry">
            <mxRectangle x="490" y="1260" width="160" height="120" as="alternateBounds" />
          </mxGeometry>
        </mxCell>
        <mxCell id="VjDglddzhyZa91ICOikW-28" value="id" style="text;strokeColor=none;fillColor=none;align=left;verticalAlign=middle;spacingLeft=4;spacingRight=4;overflow=hidden;points=[[0,0.5],[1,0.5]];portConstraint=eastwest;rotatable=0;whiteSpace=wrap;html=1;" parent="VjDglddzhyZa91ICOikW-27" vertex="1">
          <mxGeometry y="30" width="160" height="30" as="geometry" />
        </mxCell>
        <mxCell id="VjDglddzhyZa91ICOikW-29" value="nome" style="text;strokeColor=none;fillColor=none;align=left;verticalAlign=middle;spacingLeft=4;spacingRight=4;overflow=hidden;points=[[0,0.5],[1,0.5]];portConstraint=eastwest;rotatable=0;whiteSpace=wrap;html=1;" parent="VjDglddzhyZa91ICOikW-27" vertex="1">
          <mxGeometry y="60" width="160" height="30" as="geometry" />
        </mxCell>
        <mxCell id="VjDglddzhyZa91ICOikW-86" value="tipo=disponivel/indisponivel" style="text;strokeColor=none;fillColor=none;align=left;verticalAlign=middle;spacingLeft=4;spacingRight=4;overflow=hidden;points=[[0,0.5],[1,0.5]];portConstraint=eastwest;rotatable=0;whiteSpace=wrap;html=1;" parent="VjDglddzhyZa91ICOikW-27" vertex="1">
          <mxGeometry y="90" width="160" height="30" as="geometry" />
        </mxCell>
        <mxCell id="VjDglddzhyZa91ICOikW-77" style="rounded=0;orthogonalLoop=1;jettySize=auto;html=1;entryX=0;entryY=0.5;entryDx=0;entryDy=0;edgeStyle=orthogonalEdgeStyle;" parent="1" source="VjDglddzhyZa91ICOikW-25" target="VjDglddzhyZa91ICOikW-28" edge="1">
          <mxGeometry relative="1" as="geometry">
            <Array as="points">
              <mxPoint x="400" y="1305" />
              <mxPoint x="400" y="1305" />
            </Array>
          </mxGeometry>
        </mxCell>
        <mxCell id="VjDglddzhyZa91ICOikW-78" value="n" style="edgeLabel;html=1;align=center;verticalAlign=middle;resizable=0;points=[];" parent="VjDglddzhyZa91ICOikW-77" vertex="1" connectable="0">
          <mxGeometry x="-0.7475" y="-1" relative="1" as="geometry">
            <mxPoint as="offset" />
          </mxGeometry>
        </mxCell>
        <mxCell id="VjDglddzhyZa91ICOikW-79" value="n" style="edgeLabel;html=1;align=center;verticalAlign=middle;resizable=0;points=[];" parent="VjDglddzhyZa91ICOikW-77" vertex="1" connectable="0">
          <mxGeometry x="0.7186" relative="1" as="geometry">
            <mxPoint as="offset" />
          </mxGeometry>
        </mxCell>
        <mxCell id="VjDglddzhyZa91ICOikW-80" style="edgeStyle=orthogonalEdgeStyle;rounded=0;orthogonalLoop=1;jettySize=auto;html=1;entryX=0;entryY=0.5;entryDx=0;entryDy=0;exitX=1;exitY=0.5;exitDx=0;exitDy=0;" parent="1" source="VjDglddzhyZa91ICOikW-73" target="VjDglddzhyZa91ICOikW-29" edge="1">
          <mxGeometry relative="1" as="geometry">
            <mxPoint x="305" y="1560.0588235294117" as="sourcePoint" />
            <mxPoint x="485" y="1350" as="targetPoint" />
            <Array as="points">
              <mxPoint x="470" y="1545" />
              <mxPoint x="470" y="1335" />
            </Array>
          </mxGeometry>
        </mxCell>
        <mxCell id="VjDglddzhyZa91ICOikW-81" value="1" style="edgeLabel;html=1;align=center;verticalAlign=middle;resizable=0;points=[];" parent="VjDglddzhyZa91ICOikW-80" vertex="1" connectable="0">
          <mxGeometry x="-0.8766" y="1" relative="1" as="geometry">
            <mxPoint x="1" as="offset" />
          </mxGeometry>
        </mxCell>
        <mxCell id="VjDglddzhyZa91ICOikW-83" value="1" style="edgeLabel;html=1;align=center;verticalAlign=middle;resizable=0;points=[];" parent="VjDglddzhyZa91ICOikW-80" vertex="1" connectable="0">
          <mxGeometry x="0.9243" relative="1" as="geometry">
            <mxPoint as="offset" />
          </mxGeometry>
        </mxCell>
        <mxCell id="VjDglddzhyZa91ICOikW-84" style="edgeStyle=orthogonalEdgeStyle;rounded=0;orthogonalLoop=1;jettySize=auto;html=1;entryX=0.022;entryY=0.153;entryDx=0;entryDy=0;entryPerimeter=0;" parent="1" source="VjDglddzhyZa91ICOikW-12" target="VjDglddzhyZa91ICOikW-29" edge="1">
          <mxGeometry relative="1" as="geometry">
            <Array as="points">
              <mxPoint x="390" y="1515" />
              <mxPoint x="390" y="1325" />
            </Array>
          </mxGeometry>
        </mxCell>
        <mxCell id="VjDglddzhyZa91ICOikW-112" value="1" style="edgeLabel;html=1;align=center;verticalAlign=middle;resizable=0;points=[];" parent="VjDglddzhyZa91ICOikW-84" vertex="1" connectable="0">
          <mxGeometry x="-0.9471" y="1" relative="1" as="geometry">
            <mxPoint x="1" as="offset" />
          </mxGeometry>
        </mxCell>
        <mxCell id="VjDglddzhyZa91ICOikW-113" value="1" style="edgeLabel;html=1;align=center;verticalAlign=middle;resizable=0;points=[];" parent="VjDglddzhyZa91ICOikW-84" vertex="1" connectable="0">
          <mxGeometry x="0.9355" y="-2" relative="1" as="geometry">
            <mxPoint as="offset" />
          </mxGeometry>
        </mxCell>
        <mxCell id="VjDglddzhyZa91ICOikW-87" value="fornecedor" style="swimlane;fontStyle=0;childLayout=stackLayout;horizontal=1;startSize=26;horizontalStack=0;resizeParent=1;resizeParentMax=0;resizeLast=0;collapsible=1;marginBottom=0;align=center;fontSize=14;" parent="1" vertex="1" collapsed="1">
          <mxGeometry x="270" y="1630" width="110" height="30" as="geometry">
            <mxRectangle x="270" y="1630" width="160" height="116" as="alternateBounds" />
          </mxGeometry>
        </mxCell>
        <mxCell id="VjDglddzhyZa91ICOikW-88" value="id&lt;span style=&quot;white-space: pre;&quot;&gt;&#x9;&lt;/span&gt;&lt;span style=&quot;white-space: pre;&quot;&gt;&#x9;&lt;/span&gt;" style="text;strokeColor=none;fillColor=none;spacingLeft=4;spacingRight=4;overflow=hidden;rotatable=0;points=[[0,0.5],[1,0.5]];portConstraint=eastwest;fontSize=12;whiteSpace=wrap;html=1;" parent="VjDglddzhyZa91ICOikW-87" vertex="1">
          <mxGeometry y="26" width="160" height="30" as="geometry" />
        </mxCell>
        <mxCell id="VjDglddzhyZa91ICOikW-89" value="nome" style="text;strokeColor=none;fillColor=none;spacingLeft=4;spacingRight=4;overflow=hidden;rotatable=0;points=[[0,0.5],[1,0.5]];portConstraint=eastwest;fontSize=12;whiteSpace=wrap;html=1;" parent="VjDglddzhyZa91ICOikW-87" vertex="1">
          <mxGeometry y="56" width="160" height="30" as="geometry" />
        </mxCell>
        <mxCell id="VjDglddzhyZa91ICOikW-90" value="cnpj" style="text;strokeColor=none;fillColor=none;spacingLeft=4;spacingRight=4;overflow=hidden;rotatable=0;points=[[0,0.5],[1,0.5]];portConstraint=eastwest;fontSize=12;whiteSpace=wrap;html=1;" parent="VjDglddzhyZa91ICOikW-87" vertex="1">
          <mxGeometry y="86" width="160" height="30" as="geometry" />
        </mxCell>
        <mxCell id="VjDglddzhyZa91ICOikW-92" value="cliente" style="swimlane;fontStyle=0;childLayout=stackLayout;horizontal=1;startSize=26;horizontalStack=0;resizeParent=1;resizeParentMax=0;resizeLast=0;collapsible=1;marginBottom=0;align=center;fontSize=14;" parent="1" vertex="1" collapsed="1">
          <mxGeometry x="540" y="1450" width="80" height="30" as="geometry">
            <mxRectangle x="540" y="1450" width="160" height="116" as="alternateBounds" />
          </mxGeometry>
        </mxCell>
        <mxCell id="VjDglddzhyZa91ICOikW-93" value="id&lt;span style=&quot;white-space: pre;&quot;&gt;&#x9;&lt;/span&gt;&lt;span style=&quot;white-space: pre;&quot;&gt;&#x9;&lt;/span&gt;" style="text;strokeColor=none;fillColor=none;spacingLeft=4;spacingRight=4;overflow=hidden;rotatable=0;points=[[0,0.5],[1,0.5]];portConstraint=eastwest;fontSize=12;whiteSpace=wrap;html=1;" parent="VjDglddzhyZa91ICOikW-92" vertex="1">
          <mxGeometry y="26" width="160" height="30" as="geometry" />
        </mxCell>
        <mxCell id="VjDglddzhyZa91ICOikW-94" value="nome" style="text;strokeColor=none;fillColor=none;spacingLeft=4;spacingRight=4;overflow=hidden;rotatable=0;points=[[0,0.5],[1,0.5]];portConstraint=eastwest;fontSize=12;whiteSpace=wrap;html=1;" parent="VjDglddzhyZa91ICOikW-92" vertex="1">
          <mxGeometry y="56" width="160" height="30" as="geometry" />
        </mxCell>
        <mxCell id="VjDglddzhyZa91ICOikW-95" value="cpf" style="text;strokeColor=none;fillColor=none;spacingLeft=4;spacingRight=4;overflow=hidden;rotatable=0;points=[[0,0.5],[1,0.5]];portConstraint=eastwest;fontSize=12;whiteSpace=wrap;html=1;" parent="VjDglddzhyZa91ICOikW-92" vertex="1">
          <mxGeometry y="86" width="160" height="30" as="geometry" />
        </mxCell>
        <mxCell id="VjDglddzhyZa91ICOikW-97" style="edgeStyle=orthogonalEdgeStyle;rounded=0;orthogonalLoop=1;jettySize=auto;html=1;entryX=0;entryY=0.5;entryDx=0;entryDy=0;" parent="1" source="VjDglddzhyZa91ICOikW-96" target="VjDglddzhyZa91ICOikW-88" edge="1">
          <mxGeometry relative="1" as="geometry" />
        </mxCell>
        <mxCell id="VjDglddzhyZa91ICOikW-106" value="1" style="edgeLabel;html=1;align=center;verticalAlign=middle;resizable=0;points=[];" parent="VjDglddzhyZa91ICOikW-97" vertex="1" connectable="0">
          <mxGeometry x="-0.6999" y="2" relative="1" as="geometry">
            <mxPoint x="1" as="offset" />
          </mxGeometry>
        </mxCell>
        <mxCell id="VjDglddzhyZa91ICOikW-107" value="1" style="edgeLabel;html=1;align=center;verticalAlign=middle;resizable=0;points=[];" parent="VjDglddzhyZa91ICOikW-97" vertex="1" connectable="0">
          <mxGeometry x="0.8189" y="2" relative="1" as="geometry">
            <mxPoint as="offset" />
          </mxGeometry>
        </mxCell>
        <mxCell id="VjDglddzhyZa91ICOikW-98" style="edgeStyle=orthogonalEdgeStyle;rounded=0;orthogonalLoop=1;jettySize=auto;html=1;" parent="1" source="VjDglddzhyZa91ICOikW-74" target="VjDglddzhyZa91ICOikW-93" edge="1">
          <mxGeometry relative="1" as="geometry">
            <Array as="points">
              <mxPoint x="530" y="1575" />
              <mxPoint x="530" y="1491" />
            </Array>
          </mxGeometry>
        </mxCell>
        <mxCell id="VjDglddzhyZa91ICOikW-110" value="1" style="edgeLabel;html=1;align=center;verticalAlign=middle;resizable=0;points=[];" parent="VjDglddzhyZa91ICOikW-98" vertex="1" connectable="0">
          <mxGeometry x="-0.9407" y="2" relative="1" as="geometry">
            <mxPoint x="1" as="offset" />
          </mxGeometry>
        </mxCell>
        <mxCell id="VjDglddzhyZa91ICOikW-111" value="1" style="edgeLabel;html=1;align=center;verticalAlign=middle;resizable=0;points=[];" parent="VjDglddzhyZa91ICOikW-98" vertex="1" connectable="0">
          <mxGeometry x="0.9269" relative="1" as="geometry">
            <mxPoint y="1" as="offset" />
          </mxGeometry>
        </mxCell>
        <mxCell id="VjDglddzhyZa91ICOikW-99" style="edgeStyle=orthogonalEdgeStyle;rounded=0;orthogonalLoop=1;jettySize=auto;html=1;entryX=1;entryY=0.5;entryDx=0;entryDy=0;" parent="1" source="VjDglddzhyZa91ICOikW-75" target="VjDglddzhyZa91ICOikW-28" edge="1">
          <mxGeometry relative="1" as="geometry">
            <Array as="points">
              <mxPoint x="750" y="1605" />
              <mxPoint x="750" y="1305" />
            </Array>
          </mxGeometry>
        </mxCell>
        <mxCell id="VjDglddzhyZa91ICOikW-108" value="1" style="edgeLabel;html=1;align=center;verticalAlign=middle;resizable=0;points=[];" parent="VjDglddzhyZa91ICOikW-99" vertex="1" connectable="0">
          <mxGeometry x="-0.965" relative="1" as="geometry">
            <mxPoint x="1" as="offset" />
          </mxGeometry>
        </mxCell>
        <mxCell id="VjDglddzhyZa91ICOikW-109" value="n" style="edgeLabel;html=1;align=center;verticalAlign=middle;resizable=0;points=[];" parent="VjDglddzhyZa91ICOikW-99" vertex="1" connectable="0">
          <mxGeometry x="0.9673" y="-5" relative="1" as="geometry">
            <mxPoint as="offset" />
          </mxGeometry>
        </mxCell>
        <mxCell id="VjDglddzhyZa91ICOikW-100" style="edgeStyle=orthogonalEdgeStyle;rounded=0;orthogonalLoop=1;jettySize=auto;html=1;" parent="1" source="VjDglddzhyZa91ICOikW-8" target="VjDglddzhyZa91ICOikW-25" edge="1">
          <mxGeometry relative="1" as="geometry" />
        </mxCell>
        <mxCell id="VjDglddzhyZa91ICOikW-101" value="1" style="edgeLabel;html=1;align=center;verticalAlign=middle;resizable=0;points=[];" parent="VjDglddzhyZa91ICOikW-100" vertex="1" connectable="0">
          <mxGeometry x="-0.8096" y="-1" relative="1" as="geometry">
            <mxPoint as="offset" />
          </mxGeometry>
        </mxCell>
        <mxCell id="VjDglddzhyZa91ICOikW-103" value="n" style="edgeLabel;html=1;align=center;verticalAlign=middle;resizable=0;points=[];" parent="VjDglddzhyZa91ICOikW-100" vertex="1" connectable="0">
          <mxGeometry x="0.6462" y="1" relative="1" as="geometry">
            <mxPoint as="offset" />
          </mxGeometry>
        </mxCell>
        <mxCell id="VjDglddzhyZa91ICOikW-114" value="" style="rounded=0;whiteSpace=wrap;html=1;fillColor=#f5f5f5;strokeColor=default;fontColor=#333333;strokeWidth=1;perimeterSpacing=1;" parent="1" vertex="1">
          <mxGeometry x="-70" y="1790" width="850" height="560" as="geometry" />
        </mxCell>
        <mxCell id="VjDglddzhyZa91ICOikW-115" value="Ex-5(FLORES)" style="rounded=0;whiteSpace=wrap;html=1;" parent="1" vertex="1">
          <mxGeometry x="-60" y="1830" width="120" height="60" as="geometry" />
        </mxCell>
        <mxCell id="h-aRL1PdhSvuxkFvsWRz-1" value="cliente" style="swimlane;fontStyle=0;childLayout=stackLayout;horizontal=1;startSize=26;horizontalStack=0;resizeParent=1;resizeParentMax=0;resizeLast=0;collapsible=1;marginBottom=0;align=center;fontSize=14;" parent="1" vertex="1">
          <mxGeometry x="210" y="1820" width="160" height="176" as="geometry">
            <mxRectangle x="155" y="1790" width="80" height="30" as="alternateBounds" />
          </mxGeometry>
        </mxCell>
        <mxCell id="h-aRL1PdhSvuxkFvsWRz-2" value="id&lt;span style=&quot;white-space: pre;&quot;&gt;&#x9;&lt;/span&gt;&lt;span style=&quot;white-space: pre;&quot;&gt;&#x9;&lt;/span&gt;" style="text;strokeColor=none;fillColor=none;spacingLeft=4;spacingRight=4;overflow=hidden;rotatable=0;points=[[0,0.5],[1,0.5]];portConstraint=eastwest;fontSize=12;whiteSpace=wrap;html=1;" parent="h-aRL1PdhSvuxkFvsWRz-1" vertex="1">
          <mxGeometry y="26" width="160" height="30" as="geometry" />
        </mxCell>
        <mxCell id="h-aRL1PdhSvuxkFvsWRz-3" value="nome" style="text;strokeColor=none;fillColor=none;spacingLeft=4;spacingRight=4;overflow=hidden;rotatable=0;points=[[0,0.5],[1,0.5]];portConstraint=eastwest;fontSize=12;whiteSpace=wrap;html=1;" parent="h-aRL1PdhSvuxkFvsWRz-1" vertex="1">
          <mxGeometry y="56" width="160" height="30" as="geometry" />
        </mxCell>
        <mxCell id="h-aRL1PdhSvuxkFvsWRz-4" value="cpf" style="text;strokeColor=none;fillColor=none;spacingLeft=4;spacingRight=4;overflow=hidden;rotatable=0;points=[[0,0.5],[1,0.5]];portConstraint=eastwest;fontSize=12;whiteSpace=wrap;html=1;" parent="h-aRL1PdhSvuxkFvsWRz-1" vertex="1">
          <mxGeometry y="86" width="160" height="30" as="geometry" />
        </mxCell>
        <mxCell id="h-aRL1PdhSvuxkFvsWRz-68" value="endereco" style="text;strokeColor=none;fillColor=none;spacingLeft=4;spacingRight=4;overflow=hidden;rotatable=0;points=[[0,0.5],[1,0.5]];portConstraint=eastwest;fontSize=12;whiteSpace=wrap;html=1;" parent="h-aRL1PdhSvuxkFvsWRz-1" vertex="1">
          <mxGeometry y="116" width="160" height="30" as="geometry" />
        </mxCell>
        <mxCell id="h-aRL1PdhSvuxkFvsWRz-69" value="cidade" style="text;strokeColor=none;fillColor=none;spacingLeft=4;spacingRight=4;overflow=hidden;rotatable=0;points=[[0,0.5],[1,0.5]];portConstraint=eastwest;fontSize=12;whiteSpace=wrap;html=1;" parent="h-aRL1PdhSvuxkFvsWRz-1" vertex="1">
          <mxGeometry y="146" width="160" height="30" as="geometry" />
        </mxCell>
        <mxCell id="h-aRL1PdhSvuxkFvsWRz-5" value="pedido" style="swimlane;fontStyle=0;childLayout=stackLayout;horizontal=1;startSize=26;horizontalStack=0;resizeParent=1;resizeParentMax=0;resizeLast=0;collapsible=1;marginBottom=0;align=center;fontSize=14;" parent="1" vertex="1">
          <mxGeometry x="-60" y="2005" width="160" height="146" as="geometry">
            <mxRectangle x="-40" y="1890" width="80" height="30" as="alternateBounds" />
          </mxGeometry>
        </mxCell>
        <mxCell id="h-aRL1PdhSvuxkFvsWRz-6" value="id&lt;span style=&quot;white-space: pre;&quot;&gt;&#x9;&lt;/span&gt;&lt;span style=&quot;white-space: pre;&quot;&gt;&#x9;&lt;/span&gt;" style="text;strokeColor=none;fillColor=none;spacingLeft=4;spacingRight=4;overflow=hidden;rotatable=0;points=[[0,0.5],[1,0.5]];portConstraint=eastwest;fontSize=12;whiteSpace=wrap;html=1;" parent="h-aRL1PdhSvuxkFvsWRz-5" vertex="1">
          <mxGeometry y="26" width="160" height="30" as="geometry" />
        </mxCell>
        <mxCell id="h-aRL1PdhSvuxkFvsWRz-7" value="id_cliente" style="text;strokeColor=none;fillColor=none;spacingLeft=4;spacingRight=4;overflow=hidden;rotatable=0;points=[[0,0.5],[1,0.5]];portConstraint=eastwest;fontSize=12;whiteSpace=wrap;html=1;" parent="h-aRL1PdhSvuxkFvsWRz-5" vertex="1">
          <mxGeometry y="56" width="160" height="30" as="geometry" />
        </mxCell>
        <mxCell id="h-aRL1PdhSvuxkFvsWRz-13" value="id_floricultura" style="text;strokeColor=none;fillColor=none;spacingLeft=4;spacingRight=4;overflow=hidden;rotatable=0;points=[[0,0.5],[1,0.5]];portConstraint=eastwest;fontSize=12;whiteSpace=wrap;html=1;" parent="h-aRL1PdhSvuxkFvsWRz-5" vertex="1">
          <mxGeometry y="86" width="160" height="30" as="geometry" />
        </mxCell>
        <mxCell id="h-aRL1PdhSvuxkFvsWRz-59" value="quantidade_flor" style="text;strokeColor=none;fillColor=none;spacingLeft=4;spacingRight=4;overflow=hidden;rotatable=0;points=[[0,0.5],[1,0.5]];portConstraint=eastwest;fontSize=12;whiteSpace=wrap;html=1;" parent="h-aRL1PdhSvuxkFvsWRz-5" vertex="1">
          <mxGeometry y="116" width="160" height="30" as="geometry" />
        </mxCell>
        <mxCell id="h-aRL1PdhSvuxkFvsWRz-9" value="floricultura" style="swimlane;fontStyle=0;childLayout=stackLayout;horizontal=1;startSize=26;horizontalStack=0;resizeParent=1;resizeParentMax=0;resizeLast=0;collapsible=1;marginBottom=0;align=center;fontSize=14;" parent="1" vertex="1">
          <mxGeometry x="440" y="2105" width="160" height="116" as="geometry">
            <mxRectangle x="450" y="2035" width="110" height="30" as="alternateBounds" />
          </mxGeometry>
        </mxCell>
        <mxCell id="h-aRL1PdhSvuxkFvsWRz-10" value="id&lt;span style=&quot;white-space: pre;&quot;&gt;&#x9;&lt;/span&gt;&lt;span style=&quot;white-space: pre;&quot;&gt;&#x9;&lt;/span&gt;" style="text;strokeColor=none;fillColor=none;spacingLeft=4;spacingRight=4;overflow=hidden;rotatable=0;points=[[0,0.5],[1,0.5]];portConstraint=eastwest;fontSize=12;whiteSpace=wrap;html=1;" parent="h-aRL1PdhSvuxkFvsWRz-9" vertex="1">
          <mxGeometry y="26" width="160" height="30" as="geometry" />
        </mxCell>
        <mxCell id="h-aRL1PdhSvuxkFvsWRz-11" value="nome" style="text;strokeColor=none;fillColor=none;spacingLeft=4;spacingRight=4;overflow=hidden;rotatable=0;points=[[0,0.5],[1,0.5]];portConstraint=eastwest;fontSize=12;whiteSpace=wrap;html=1;" parent="h-aRL1PdhSvuxkFvsWRz-9" vertex="1">
          <mxGeometry y="56" width="160" height="30" as="geometry" />
        </mxCell>
        <mxCell id="h-aRL1PdhSvuxkFvsWRz-12" value="cnpj" style="text;strokeColor=none;fillColor=none;spacingLeft=4;spacingRight=4;overflow=hidden;rotatable=0;points=[[0,0.5],[1,0.5]];portConstraint=eastwest;fontSize=12;whiteSpace=wrap;html=1;" parent="h-aRL1PdhSvuxkFvsWRz-9" vertex="1">
          <mxGeometry y="86" width="160" height="30" as="geometry" />
        </mxCell>
        <mxCell id="h-aRL1PdhSvuxkFvsWRz-14" value="flor" style="swimlane;fontStyle=0;childLayout=stackLayout;horizontal=1;startSize=26;horizontalStack=0;resizeParent=1;resizeParentMax=0;resizeLast=0;collapsible=1;marginBottom=0;align=center;fontSize=14;" parent="1" vertex="1">
          <mxGeometry x="200" y="2075" width="160" height="146" as="geometry">
            <mxRectangle x="240" y="2020" width="60" height="30" as="alternateBounds" />
          </mxGeometry>
        </mxCell>
        <mxCell id="h-aRL1PdhSvuxkFvsWRz-15" value="id&lt;span style=&quot;white-space: pre;&quot;&gt;&#x9;&lt;/span&gt;&lt;span style=&quot;white-space: pre;&quot;&gt;&#x9;&lt;/span&gt;" style="text;strokeColor=none;fillColor=none;spacingLeft=4;spacingRight=4;overflow=hidden;rotatable=0;points=[[0,0.5],[1,0.5]];portConstraint=eastwest;fontSize=12;whiteSpace=wrap;html=1;" parent="h-aRL1PdhSvuxkFvsWRz-14" vertex="1">
          <mxGeometry y="26" width="160" height="30" as="geometry" />
        </mxCell>
        <mxCell id="h-aRL1PdhSvuxkFvsWRz-16" value="tipo" style="text;strokeColor=none;fillColor=none;spacingLeft=4;spacingRight=4;overflow=hidden;rotatable=0;points=[[0,0.5],[1,0.5]];portConstraint=eastwest;fontSize=12;whiteSpace=wrap;html=1;" parent="h-aRL1PdhSvuxkFvsWRz-14" vertex="1">
          <mxGeometry y="56" width="160" height="30" as="geometry" />
        </mxCell>
        <mxCell id="h-aRL1PdhSvuxkFvsWRz-17" value="id_floricultura" style="text;strokeColor=none;fillColor=none;spacingLeft=4;spacingRight=4;overflow=hidden;rotatable=0;points=[[0,0.5],[1,0.5]];portConstraint=eastwest;fontSize=12;whiteSpace=wrap;html=1;" parent="h-aRL1PdhSvuxkFvsWRz-14" vertex="1">
          <mxGeometry y="86" width="160" height="30" as="geometry" />
        </mxCell>
        <mxCell id="h-aRL1PdhSvuxkFvsWRz-19" value="quantidade" style="text;strokeColor=none;fillColor=none;spacingLeft=4;spacingRight=4;overflow=hidden;rotatable=0;points=[[0,0.5],[1,0.5]];portConstraint=eastwest;fontSize=12;whiteSpace=wrap;html=1;" parent="h-aRL1PdhSvuxkFvsWRz-14" vertex="1">
          <mxGeometry y="116" width="160" height="30" as="geometry" />
        </mxCell>
        <mxCell id="h-aRL1PdhSvuxkFvsWRz-18" style="edgeStyle=orthogonalEdgeStyle;rounded=0;orthogonalLoop=1;jettySize=auto;html=1;exitX=1;exitY=0.3;exitDx=0;exitDy=0;exitPerimeter=0;" parent="1" source="h-aRL1PdhSvuxkFvsWRz-13" target="h-aRL1PdhSvuxkFvsWRz-15" edge="1">
          <mxGeometry relative="1" as="geometry" />
        </mxCell>
        <mxCell id="h-aRL1PdhSvuxkFvsWRz-31" value="1" style="edgeLabel;html=1;align=center;verticalAlign=middle;resizable=0;points=[];" parent="h-aRL1PdhSvuxkFvsWRz-18" vertex="1" connectable="0">
          <mxGeometry x="-0.8465" y="2" relative="1" as="geometry">
            <mxPoint as="offset" />
          </mxGeometry>
        </mxCell>
        <mxCell id="h-aRL1PdhSvuxkFvsWRz-33" value="1" style="edgeLabel;html=1;align=center;verticalAlign=middle;resizable=0;points=[];" parent="h-aRL1PdhSvuxkFvsWRz-18" vertex="1" connectable="0">
          <mxGeometry x="0.8583" y="2" relative="1" as="geometry">
            <mxPoint as="offset" />
          </mxGeometry>
        </mxCell>
        <mxCell id="h-aRL1PdhSvuxkFvsWRz-20" style="edgeStyle=orthogonalEdgeStyle;rounded=0;orthogonalLoop=1;jettySize=auto;html=1;entryX=0;entryY=0.5;entryDx=0;entryDy=0;" parent="1" source="h-aRL1PdhSvuxkFvsWRz-19" target="h-aRL1PdhSvuxkFvsWRz-10" edge="1">
          <mxGeometry relative="1" as="geometry" />
        </mxCell>
        <mxCell id="h-aRL1PdhSvuxkFvsWRz-34" value="1" style="edgeLabel;html=1;align=center;verticalAlign=middle;resizable=0;points=[];" parent="h-aRL1PdhSvuxkFvsWRz-20" vertex="1" connectable="0">
          <mxGeometry x="-0.9371" relative="1" as="geometry">
            <mxPoint as="offset" />
          </mxGeometry>
        </mxCell>
        <mxCell id="h-aRL1PdhSvuxkFvsWRz-35" value="n" style="edgeLabel;html=1;align=center;verticalAlign=middle;resizable=0;points=[];" parent="h-aRL1PdhSvuxkFvsWRz-20" vertex="1" connectable="0">
          <mxGeometry x="0.9057" relative="1" as="geometry">
            <mxPoint as="offset" />
          </mxGeometry>
        </mxCell>
        <mxCell id="h-aRL1PdhSvuxkFvsWRz-39" style="rounded=0;orthogonalLoop=1;jettySize=auto;html=1;exitX=1;exitY=0.5;exitDx=0;exitDy=0;entryX=0;entryY=0.5;entryDx=0;entryDy=0;" parent="1" source="h-aRL1PdhSvuxkFvsWRz-6" target="h-aRL1PdhSvuxkFvsWRz-2" edge="1">
          <mxGeometry relative="1" as="geometry">
            <mxPoint x="210" y="1860" as="targetPoint" />
            <Array as="points">
              <mxPoint x="130" y="2046" />
              <mxPoint x="130" y="1861" />
            </Array>
          </mxGeometry>
        </mxCell>
        <mxCell id="h-aRL1PdhSvuxkFvsWRz-40" value="1" style="edgeLabel;html=1;align=center;verticalAlign=middle;resizable=0;points=[];" parent="h-aRL1PdhSvuxkFvsWRz-39" vertex="1" connectable="0">
          <mxGeometry x="-0.8947" y="2" relative="1" as="geometry">
            <mxPoint as="offset" />
          </mxGeometry>
        </mxCell>
        <mxCell id="h-aRL1PdhSvuxkFvsWRz-41" value="n" style="edgeLabel;html=1;align=center;verticalAlign=middle;resizable=0;points=[];" parent="h-aRL1PdhSvuxkFvsWRz-39" vertex="1" connectable="0">
          <mxGeometry x="0.8918" y="2" relative="1" as="geometry">
            <mxPoint as="offset" />
          </mxGeometry>
        </mxCell>
        <mxCell id="rooZ9aDeK034alcFEr4--3" value="Ex-06(ELEITORAL)" style="rounded=0;whiteSpace=wrap;html=1;" parent="1" vertex="1">
          <mxGeometry x="-700" y="2410" width="120" height="60" as="geometry" />
        </mxCell>
        <mxCell id="rooZ9aDeK034alcFEr4--23" value="candidato" style="swimlane;fontStyle=0;childLayout=stackLayout;horizontal=1;startSize=26;horizontalStack=0;resizeParent=1;resizeParentMax=0;resizeLast=0;collapsible=1;marginBottom=0;align=center;fontSize=14;" parent="1" vertex="1">
          <mxGeometry x="-560" y="2470" width="160" height="116" as="geometry" />
        </mxCell>
        <mxCell id="rooZ9aDeK034alcFEr4--24" value="id&lt;div&gt;&lt;br&gt;&lt;/div&gt;" style="text;strokeColor=none;fillColor=none;spacingLeft=4;spacingRight=4;overflow=hidden;rotatable=0;points=[[0,0.5],[1,0.5]];portConstraint=eastwest;fontSize=12;whiteSpace=wrap;html=1;" parent="rooZ9aDeK034alcFEr4--23" vertex="1">
          <mxGeometry y="26" width="160" height="30" as="geometry" />
        </mxCell>
        <mxCell id="rooZ9aDeK034alcFEr4--25" value="nome" style="text;strokeColor=none;fillColor=none;spacingLeft=4;spacingRight=4;overflow=hidden;rotatable=0;points=[[0,0.5],[1,0.5]];portConstraint=eastwest;fontSize=12;whiteSpace=wrap;html=1;" parent="rooZ9aDeK034alcFEr4--23" vertex="1">
          <mxGeometry y="56" width="160" height="30" as="geometry" />
        </mxCell>
        <mxCell id="rooZ9aDeK034alcFEr4--26" value="cpf" style="text;strokeColor=none;fillColor=none;spacingLeft=4;spacingRight=4;overflow=hidden;rotatable=0;points=[[0,0.5],[1,0.5]];portConstraint=eastwest;fontSize=12;whiteSpace=wrap;html=1;" parent="rooZ9aDeK034alcFEr4--23" vertex="1">
          <mxGeometry y="86" width="160" height="30" as="geometry" />
        </mxCell>
        <mxCell id="rooZ9aDeK034alcFEr4--27" value="eleitores" style="swimlane;fontStyle=0;childLayout=stackLayout;horizontal=1;startSize=26;horizontalStack=0;resizeParent=1;resizeParentMax=0;resizeLast=0;collapsible=1;marginBottom=0;align=center;fontSize=14;" parent="1" vertex="1">
          <mxGeometry x="230" y="2500" width="160" height="146" as="geometry" />
        </mxCell>
        <mxCell id="rooZ9aDeK034alcFEr4--28" value="id&lt;div&gt;&lt;br&gt;&lt;/div&gt;" style="text;strokeColor=none;fillColor=none;spacingLeft=4;spacingRight=4;overflow=hidden;rotatable=0;points=[[0,0.5],[1,0.5]];portConstraint=eastwest;fontSize=12;whiteSpace=wrap;html=1;" parent="rooZ9aDeK034alcFEr4--27" vertex="1">
          <mxGeometry y="26" width="160" height="30" as="geometry" />
        </mxCell>
        <mxCell id="rooZ9aDeK034alcFEr4--29" value="nome" style="text;strokeColor=none;fillColor=none;spacingLeft=4;spacingRight=4;overflow=hidden;rotatable=0;points=[[0,0.5],[1,0.5]];portConstraint=eastwest;fontSize=12;whiteSpace=wrap;html=1;" parent="rooZ9aDeK034alcFEr4--27" vertex="1">
          <mxGeometry y="56" width="160" height="30" as="geometry" />
        </mxCell>
        <mxCell id="rooZ9aDeK034alcFEr4--30" value="cpf" style="text;strokeColor=none;fillColor=none;spacingLeft=4;spacingRight=4;overflow=hidden;rotatable=0;points=[[0,0.5],[1,0.5]];portConstraint=eastwest;fontSize=12;whiteSpace=wrap;html=1;" parent="rooZ9aDeK034alcFEr4--27" vertex="1">
          <mxGeometry y="86" width="160" height="30" as="geometry" />
        </mxCell>
        <mxCell id="rooZ9aDeK034alcFEr4--38" value="titulo" style="text;strokeColor=none;fillColor=none;spacingLeft=4;spacingRight=4;overflow=hidden;rotatable=0;points=[[0,0.5],[1,0.5]];portConstraint=eastwest;fontSize=12;whiteSpace=wrap;html=1;" parent="rooZ9aDeK034alcFEr4--27" vertex="1">
          <mxGeometry y="116" width="160" height="30" as="geometry" />
        </mxCell>
        <mxCell id="rooZ9aDeK034alcFEr4--31" value="localidade" style="swimlane;fontStyle=0;childLayout=stackLayout;horizontal=1;startSize=26;horizontalStack=0;resizeParent=1;resizeParentMax=0;resizeLast=0;collapsible=1;marginBottom=0;align=center;fontSize=14;" parent="1" vertex="1">
          <mxGeometry x="490" y="2500" width="160" height="206" as="geometry" />
        </mxCell>
        <mxCell id="rooZ9aDeK034alcFEr4--32" value="id&lt;div&gt;&lt;br&gt;&lt;/div&gt;" style="text;strokeColor=none;fillColor=none;spacingLeft=4;spacingRight=4;overflow=hidden;rotatable=0;points=[[0,0.5],[1,0.5]];portConstraint=eastwest;fontSize=12;whiteSpace=wrap;html=1;" parent="rooZ9aDeK034alcFEr4--31" vertex="1">
          <mxGeometry y="26" width="160" height="30" as="geometry" />
        </mxCell>
        <mxCell id="rooZ9aDeK034alcFEr4--33" value="nome" style="text;strokeColor=none;fillColor=none;spacingLeft=4;spacingRight=4;overflow=hidden;rotatable=0;points=[[0,0.5],[1,0.5]];portConstraint=eastwest;fontSize=12;whiteSpace=wrap;html=1;" parent="rooZ9aDeK034alcFEr4--31" vertex="1">
          <mxGeometry y="56" width="160" height="30" as="geometry" />
        </mxCell>
        <mxCell id="rooZ9aDeK034alcFEr4--34" value="cidade" style="text;strokeColor=none;fillColor=none;spacingLeft=4;spacingRight=4;overflow=hidden;rotatable=0;points=[[0,0.5],[1,0.5]];portConstraint=eastwest;fontSize=12;whiteSpace=wrap;html=1;" parent="rooZ9aDeK034alcFEr4--31" vertex="1">
          <mxGeometry y="86" width="160" height="30" as="geometry" />
        </mxCell>
        <mxCell id="rooZ9aDeK034alcFEr4--35" value="secao" style="text;strokeColor=none;fillColor=none;spacingLeft=4;spacingRight=4;overflow=hidden;rotatable=0;points=[[0,0.5],[1,0.5]];portConstraint=eastwest;fontSize=12;whiteSpace=wrap;html=1;" parent="rooZ9aDeK034alcFEr4--31" vertex="1">
          <mxGeometry y="116" width="160" height="30" as="geometry" />
        </mxCell>
        <mxCell id="rooZ9aDeK034alcFEr4--36" value="zona" style="text;strokeColor=none;fillColor=none;spacingLeft=4;spacingRight=4;overflow=hidden;rotatable=0;points=[[0,0.5],[1,0.5]];portConstraint=eastwest;fontSize=12;whiteSpace=wrap;html=1;" parent="rooZ9aDeK034alcFEr4--31" vertex="1">
          <mxGeometry y="146" width="160" height="30" as="geometry" />
        </mxCell>
        <mxCell id="rooZ9aDeK034alcFEr4--37" value="eleitores_id" style="text;strokeColor=none;fillColor=none;spacingLeft=4;spacingRight=4;overflow=hidden;rotatable=0;points=[[0,0.5],[1,0.5]];portConstraint=eastwest;fontSize=12;whiteSpace=wrap;html=1;" parent="rooZ9aDeK034alcFEr4--31" vertex="1">
          <mxGeometry y="176" width="160" height="30" as="geometry" />
        </mxCell>
        <mxCell id="rooZ9aDeK034alcFEr4--40" value="localidade_eleitores_candidato" style="swimlane;fontStyle=0;childLayout=stackLayout;horizontal=1;startSize=26;horizontalStack=0;resizeParent=1;resizeParentMax=0;resizeLast=0;collapsible=1;marginBottom=0;align=center;fontSize=14;" parent="1" vertex="1">
          <mxGeometry x="300" y="2810" width="255" height="116" as="geometry" />
        </mxCell>
        <mxCell id="rooZ9aDeK034alcFEr4--41" value="&lt;div&gt;localidade_id&lt;/div&gt;" style="text;strokeColor=none;fillColor=none;spacingLeft=4;spacingRight=4;overflow=hidden;rotatable=0;points=[[0,0.5],[1,0.5]];portConstraint=eastwest;fontSize=12;whiteSpace=wrap;html=1;" parent="rooZ9aDeK034alcFEr4--40" vertex="1">
          <mxGeometry y="26" width="255" height="30" as="geometry" />
        </mxCell>
        <mxCell id="rooZ9aDeK034alcFEr4--42" value="eleitores_id" style="text;strokeColor=none;fillColor=none;spacingLeft=4;spacingRight=4;overflow=hidden;rotatable=0;points=[[0,0.5],[1,0.5]];portConstraint=eastwest;fontSize=12;whiteSpace=wrap;html=1;" parent="rooZ9aDeK034alcFEr4--40" vertex="1">
          <mxGeometry y="56" width="255" height="30" as="geometry" />
        </mxCell>
        <mxCell id="rooZ9aDeK034alcFEr4--43" value="candidato_id" style="text;strokeColor=none;fillColor=none;spacingLeft=4;spacingRight=4;overflow=hidden;rotatable=0;points=[[0,0.5],[1,0.5]];portConstraint=eastwest;fontSize=12;whiteSpace=wrap;html=1;" parent="rooZ9aDeK034alcFEr4--40" vertex="1">
          <mxGeometry y="86" width="255" height="30" as="geometry" />
        </mxCell>
        <mxCell id="rooZ9aDeK034alcFEr4--45" style="edgeStyle=orthogonalEdgeStyle;rounded=0;orthogonalLoop=1;jettySize=auto;html=1;exitX=0;exitY=0.5;exitDx=0;exitDy=0;entryX=0;entryY=0.5;entryDx=0;entryDy=0;" parent="1" source="rooZ9aDeK034alcFEr4--28" target="rooZ9aDeK034alcFEr4--42" edge="1">
          <mxGeometry relative="1" as="geometry">
            <Array as="points">
              <mxPoint x="180" y="2541" />
              <mxPoint x="180" y="2871" />
            </Array>
          </mxGeometry>
        </mxCell>
        <mxCell id="wO5CUgCHzCkX5qgZm7yN-6" value="n" style="edgeLabel;html=1;align=center;verticalAlign=middle;resizable=0;points=[];" parent="rooZ9aDeK034alcFEr4--45" vertex="1" connectable="0">
          <mxGeometry x="-0.9143" y="-1" relative="1" as="geometry">
            <mxPoint as="offset" />
          </mxGeometry>
        </mxCell>
        <mxCell id="wO5CUgCHzCkX5qgZm7yN-7" value="n" style="edgeLabel;html=1;align=center;verticalAlign=middle;resizable=0;points=[];" parent="rooZ9aDeK034alcFEr4--45" vertex="1" connectable="0">
          <mxGeometry x="0.9014" y="-1" relative="1" as="geometry">
            <mxPoint as="offset" />
          </mxGeometry>
        </mxCell>
        <mxCell id="rooZ9aDeK034alcFEr4--46" style="edgeStyle=orthogonalEdgeStyle;rounded=0;orthogonalLoop=1;jettySize=auto;html=1;" parent="1" source="rooZ9aDeK034alcFEr4--32" target="rooZ9aDeK034alcFEr4--41" edge="1">
          <mxGeometry relative="1" as="geometry">
            <Array as="points">
              <mxPoint x="470" y="2541" />
              <mxPoint x="470" y="2691" />
              <mxPoint x="210" y="2691" />
              <mxPoint x="210" y="2841" />
            </Array>
          </mxGeometry>
        </mxCell>
        <mxCell id="wO5CUgCHzCkX5qgZm7yN-10" value="1" style="edgeLabel;html=1;align=center;verticalAlign=middle;resizable=0;points=[];" parent="rooZ9aDeK034alcFEr4--46" vertex="1" connectable="0">
          <mxGeometry x="0.9218" relative="1" as="geometry">
            <mxPoint as="offset" />
          </mxGeometry>
        </mxCell>
        <mxCell id="wO5CUgCHzCkX5qgZm7yN-11" value="1" style="edgeLabel;html=1;align=center;verticalAlign=middle;resizable=0;points=[];" parent="rooZ9aDeK034alcFEr4--46" vertex="1" connectable="0">
          <mxGeometry x="-0.9707" y="1" relative="1" as="geometry">
            <mxPoint as="offset" />
          </mxGeometry>
        </mxCell>
        <mxCell id="rooZ9aDeK034alcFEr4--47" style="edgeStyle=orthogonalEdgeStyle;rounded=0;orthogonalLoop=1;jettySize=auto;html=1;exitX=1;exitY=0.5;exitDx=0;exitDy=0;endArrow=ERmany;endFill=0;" parent="1" source="rooZ9aDeK034alcFEr4--28" target="rooZ9aDeK034alcFEr4--37" edge="1">
          <mxGeometry relative="1" as="geometry">
            <Array as="points">
              <mxPoint x="390" y="2540" />
              <mxPoint x="440" y="2540" />
              <mxPoint x="440" y="2490" />
              <mxPoint x="740" y="2490" />
              <mxPoint x="740" y="2691" />
            </Array>
          </mxGeometry>
        </mxCell>
        <mxCell id="wO5CUgCHzCkX5qgZm7yN-14" value="N" style="edgeLabel;html=1;align=center;verticalAlign=middle;resizable=0;points=[];" parent="rooZ9aDeK034alcFEr4--47" vertex="1" connectable="0">
          <mxGeometry x="-0.9497" y="-2" relative="1" as="geometry">
            <mxPoint as="offset" />
          </mxGeometry>
        </mxCell>
        <mxCell id="wO5CUgCHzCkX5qgZm7yN-16" value="1" style="edgeLabel;html=1;align=center;verticalAlign=middle;resizable=0;points=[];" parent="rooZ9aDeK034alcFEr4--47" vertex="1" connectable="0">
          <mxGeometry x="0.9324" y="1" relative="1" as="geometry">
            <mxPoint as="offset" />
          </mxGeometry>
        </mxCell>
        <mxCell id="wO5CUgCHzCkX5qgZm7yN-3" style="edgeStyle=orthogonalEdgeStyle;rounded=0;orthogonalLoop=1;jettySize=auto;html=1;exitX=1;exitY=0.5;exitDx=0;exitDy=0;entryX=-0.012;entryY=0.74;entryDx=0;entryDy=0;entryPerimeter=0;" parent="1" source="rooZ9aDeK034alcFEr4--24" target="rooZ9aDeK034alcFEr4--43" edge="1">
          <mxGeometry relative="1" as="geometry">
            <Array as="points">
              <mxPoint x="-380" y="2556" />
              <mxPoint x="-250" y="2556" />
              <mxPoint x="-250" y="2908" />
              <mxPoint x="297" y="2908" />
            </Array>
          </mxGeometry>
        </mxCell>
        <mxCell id="wO5CUgCHzCkX5qgZm7yN-4" value="n" style="edgeLabel;html=1;align=center;verticalAlign=middle;resizable=0;points=[];" parent="wO5CUgCHzCkX5qgZm7yN-3" vertex="1" connectable="0">
          <mxGeometry x="-0.8997" y="-1" relative="1" as="geometry">
            <mxPoint as="offset" />
          </mxGeometry>
        </mxCell>
        <mxCell id="wO5CUgCHzCkX5qgZm7yN-5" value="1" style="edgeLabel;html=1;align=center;verticalAlign=middle;resizable=0;points=[];" parent="wO5CUgCHzCkX5qgZm7yN-3" vertex="1" connectable="0">
          <mxGeometry x="0.9211" relative="1" as="geometry">
            <mxPoint as="offset" />
          </mxGeometry>
        </mxCell>
        <mxCell id="wO5CUgCHzCkX5qgZm7yN-18" value="" style="rounded=0;whiteSpace=wrap;html=1;fillColor=#f5f5f5;strokeColor=#666666;fontColor=#333333;" parent="1" vertex="1">
          <mxGeometry x="-90" y="2990" width="870" height="740" as="geometry" />
        </mxCell>
        <mxCell id="wO5CUgCHzCkX5qgZm7yN-19" value="Ex-07(CONCURSO)" style="rounded=0;whiteSpace=wrap;html=1;" parent="1" vertex="1">
          <mxGeometry x="-60" y="3010" width="180" height="60" as="geometry" />
        </mxCell>
        <mxCell id="kplSNx-cZ_UU8S7fsbWp-1" value="departamento" style="swimlane;fontStyle=0;childLayout=stackLayout;horizontal=1;startSize=26;horizontalStack=0;resizeParent=1;resizeParentMax=0;resizeLast=0;collapsible=1;marginBottom=0;align=center;fontSize=14;" parent="1" vertex="1">
          <mxGeometry y="3080" width="160" height="86" as="geometry" />
        </mxCell>
        <mxCell id="kplSNx-cZ_UU8S7fsbWp-2" value="id&lt;div&gt;&lt;br&gt;&lt;/div&gt;" style="text;strokeColor=none;fillColor=none;spacingLeft=4;spacingRight=4;overflow=hidden;rotatable=0;points=[[0,0.5],[1,0.5]];portConstraint=eastwest;fontSize=12;whiteSpace=wrap;html=1;" parent="kplSNx-cZ_UU8S7fsbWp-1" vertex="1">
          <mxGeometry y="26" width="160" height="30" as="geometry" />
        </mxCell>
        <mxCell id="kplSNx-cZ_UU8S7fsbWp-3" value="nome" style="text;strokeColor=none;fillColor=none;spacingLeft=4;spacingRight=4;overflow=hidden;rotatable=0;points=[[0,0.5],[1,0.5]];portConstraint=eastwest;fontSize=12;whiteSpace=wrap;html=1;" parent="kplSNx-cZ_UU8S7fsbWp-1" vertex="1">
          <mxGeometry y="56" width="160" height="30" as="geometry" />
        </mxCell>
        <mxCell id="kplSNx-cZ_UU8S7fsbWp-5" value="cargo&#xa;" style="swimlane;fontStyle=0;childLayout=stackLayout;horizontal=1;startSize=26;horizontalStack=0;resizeParent=1;resizeParentMax=0;resizeLast=0;collapsible=1;marginBottom=0;align=center;fontSize=14;" parent="1" vertex="1">
          <mxGeometry x="-20" y="3210" width="160" height="86" as="geometry" />
        </mxCell>
        <mxCell id="kplSNx-cZ_UU8S7fsbWp-6" value="id&lt;div&gt;&lt;br&gt;&lt;/div&gt;" style="text;strokeColor=none;fillColor=none;spacingLeft=4;spacingRight=4;overflow=hidden;rotatable=0;points=[[0,0.5],[1,0.5]];portConstraint=eastwest;fontSize=12;whiteSpace=wrap;html=1;" parent="kplSNx-cZ_UU8S7fsbWp-5" vertex="1">
          <mxGeometry y="26" width="160" height="30" as="geometry" />
        </mxCell>
        <mxCell id="kplSNx-cZ_UU8S7fsbWp-7" value="nome" style="text;strokeColor=none;fillColor=none;spacingLeft=4;spacingRight=4;overflow=hidden;rotatable=0;points=[[0,0.5],[1,0.5]];portConstraint=eastwest;fontSize=12;whiteSpace=wrap;html=1;" parent="kplSNx-cZ_UU8S7fsbWp-5" vertex="1">
          <mxGeometry y="56" width="160" height="30" as="geometry" />
        </mxCell>
        <mxCell id="kplSNx-cZ_UU8S7fsbWp-8" style="edgeStyle=orthogonalEdgeStyle;rounded=0;orthogonalLoop=1;jettySize=auto;html=1;entryX=0;entryY=0.5;entryDx=0;entryDy=0;exitX=0;exitY=0.5;exitDx=0;exitDy=0;endArrow=ERmany;endFill=0;" parent="1" source="kplSNx-cZ_UU8S7fsbWp-2" target="kplSNx-cZ_UU8S7fsbWp-6" edge="1">
          <mxGeometry relative="1" as="geometry">
            <Array as="points">
              <mxPoint x="-40" y="3121" />
              <mxPoint x="-40" y="3120" />
              <mxPoint x="-60" y="3120" />
              <mxPoint x="-60" y="3250" />
            </Array>
          </mxGeometry>
        </mxCell>
        <mxCell id="kplSNx-cZ_UU8S7fsbWp-9" value="n" style="edgeLabel;html=1;align=center;verticalAlign=middle;resizable=0;points=[];" parent="kplSNx-cZ_UU8S7fsbWp-8" vertex="1" connectable="0">
          <mxGeometry x="-0.9436" relative="1" as="geometry">
            <mxPoint as="offset" />
          </mxGeometry>
        </mxCell>
        <mxCell id="kplSNx-cZ_UU8S7fsbWp-10" value="n" style="edgeLabel;html=1;align=center;verticalAlign=middle;resizable=0;points=[];" parent="kplSNx-cZ_UU8S7fsbWp-8" vertex="1" connectable="0">
          <mxGeometry x="0.9077" y="-2" relative="1" as="geometry">
            <mxPoint as="offset" />
          </mxGeometry>
        </mxCell>
        <mxCell id="kplSNx-cZ_UU8S7fsbWp-11" value="&#xa;cargo_departamento&#xa;" style="swimlane;fontStyle=0;childLayout=stackLayout;horizontal=1;startSize=26;horizontalStack=0;resizeParent=1;resizeParentMax=0;resizeLast=0;collapsible=1;marginBottom=0;align=center;fontSize=14;" parent="1" vertex="1">
          <mxGeometry x="-20" y="3410" width="160" height="86" as="geometry" />
        </mxCell>
        <mxCell id="kplSNx-cZ_UU8S7fsbWp-12" value="id&lt;div&gt;&lt;br&gt;&lt;/div&gt;" style="text;strokeColor=none;fillColor=none;spacingLeft=4;spacingRight=4;overflow=hidden;rotatable=0;points=[[0,0.5],[1,0.5]];portConstraint=eastwest;fontSize=12;whiteSpace=wrap;html=1;" parent="kplSNx-cZ_UU8S7fsbWp-11" vertex="1">
          <mxGeometry y="26" width="160" height="30" as="geometry" />
        </mxCell>
        <mxCell id="kplSNx-cZ_UU8S7fsbWp-13" value="departamento_id" style="text;strokeColor=none;fillColor=none;spacingLeft=4;spacingRight=4;overflow=hidden;rotatable=0;points=[[0,0.5],[1,0.5]];portConstraint=eastwest;fontSize=12;whiteSpace=wrap;html=1;" parent="kplSNx-cZ_UU8S7fsbWp-11" vertex="1">
          <mxGeometry y="56" width="160" height="30" as="geometry" />
        </mxCell>
        <mxCell id="kplSNx-cZ_UU8S7fsbWp-14" value="&#xa;concurso&#xa;" style="swimlane;fontStyle=0;childLayout=stackLayout;horizontal=1;startSize=26;horizontalStack=0;resizeParent=1;resizeParentMax=0;resizeLast=0;collapsible=1;marginBottom=0;align=center;fontSize=14;" parent="1" vertex="1">
          <mxGeometry x="185" y="3140" width="160" height="86" as="geometry" />
        </mxCell>
        <mxCell id="kplSNx-cZ_UU8S7fsbWp-15" value="id&lt;div&gt;&lt;br&gt;&lt;/div&gt;" style="text;strokeColor=none;fillColor=none;spacingLeft=4;spacingRight=4;overflow=hidden;rotatable=0;points=[[0,0.5],[1,0.5]];portConstraint=eastwest;fontSize=12;whiteSpace=wrap;html=1;" parent="kplSNx-cZ_UU8S7fsbWp-14" vertex="1">
          <mxGeometry y="26" width="160" height="30" as="geometry" />
        </mxCell>
        <mxCell id="kplSNx-cZ_UU8S7fsbWp-16" value="edital" style="text;strokeColor=none;fillColor=none;spacingLeft=4;spacingRight=4;overflow=hidden;rotatable=0;points=[[0,0.5],[1,0.5]];portConstraint=eastwest;fontSize=12;whiteSpace=wrap;html=1;" parent="kplSNx-cZ_UU8S7fsbWp-14" vertex="1">
          <mxGeometry y="56" width="160" height="30" as="geometry" />
        </mxCell>
        <mxCell id="kplSNx-cZ_UU8S7fsbWp-17" value="&#xa;candidato&#xa;" style="swimlane;fontStyle=0;childLayout=stackLayout;horizontal=1;startSize=26;horizontalStack=0;resizeParent=1;resizeParentMax=0;resizeLast=0;collapsible=1;marginBottom=0;align=center;fontSize=14;" parent="1" vertex="1">
          <mxGeometry x="380" y="3125" width="160" height="116" as="geometry" />
        </mxCell>
        <mxCell id="kplSNx-cZ_UU8S7fsbWp-18" value="id&lt;div&gt;&lt;br&gt;&lt;/div&gt;" style="text;strokeColor=none;fillColor=none;spacingLeft=4;spacingRight=4;overflow=hidden;rotatable=0;points=[[0,0.5],[1,0.5]];portConstraint=eastwest;fontSize=12;whiteSpace=wrap;html=1;" parent="kplSNx-cZ_UU8S7fsbWp-17" vertex="1">
          <mxGeometry y="26" width="160" height="30" as="geometry" />
        </mxCell>
        <mxCell id="kplSNx-cZ_UU8S7fsbWp-19" value="nome" style="text;strokeColor=none;fillColor=none;spacingLeft=4;spacingRight=4;overflow=hidden;rotatable=0;points=[[0,0.5],[1,0.5]];portConstraint=eastwest;fontSize=12;whiteSpace=wrap;html=1;" parent="kplSNx-cZ_UU8S7fsbWp-17" vertex="1">
          <mxGeometry y="56" width="160" height="30" as="geometry" />
        </mxCell>
        <mxCell id="kplSNx-cZ_UU8S7fsbWp-23" value="cpf" style="text;strokeColor=none;fillColor=none;spacingLeft=4;spacingRight=4;overflow=hidden;rotatable=0;points=[[0,0.5],[1,0.5]];portConstraint=eastwest;fontSize=12;whiteSpace=wrap;html=1;" parent="kplSNx-cZ_UU8S7fsbWp-17" vertex="1">
          <mxGeometry y="86" width="160" height="30" as="geometry" />
        </mxCell>
        <mxCell id="kplSNx-cZ_UU8S7fsbWp-27" style="edgeStyle=orthogonalEdgeStyle;rounded=0;orthogonalLoop=1;jettySize=auto;html=1;entryX=0;entryY=0.5;entryDx=0;entryDy=0;" parent="1" source="kplSNx-cZ_UU8S7fsbWp-6" target="kplSNx-cZ_UU8S7fsbWp-15" edge="1">
          <mxGeometry relative="1" as="geometry" />
        </mxCell>
        <mxCell id="kplSNx-cZ_UU8S7fsbWp-28" value="n" style="edgeLabel;html=1;align=center;verticalAlign=middle;resizable=0;points=[];" parent="kplSNx-cZ_UU8S7fsbWp-27" vertex="1" connectable="0">
          <mxGeometry x="-0.8769" y="3" relative="1" as="geometry">
            <mxPoint as="offset" />
          </mxGeometry>
        </mxCell>
        <mxCell id="kplSNx-cZ_UU8S7fsbWp-29" value="n" style="edgeLabel;html=1;align=center;verticalAlign=middle;resizable=0;points=[];" parent="kplSNx-cZ_UU8S7fsbWp-27" vertex="1" connectable="0">
          <mxGeometry x="0.8667" y="-1" relative="1" as="geometry">
            <mxPoint as="offset" />
          </mxGeometry>
        </mxCell>
        <mxCell id="kplSNx-cZ_UU8S7fsbWp-30" value="&#xa;cargo_concurso&#xa;" style="swimlane;fontStyle=0;childLayout=stackLayout;horizontal=1;startSize=26;horizontalStack=0;resizeParent=1;resizeParentMax=0;resizeLast=0;collapsible=1;marginBottom=0;align=center;fontSize=14;" parent="1" vertex="1">
          <mxGeometry x="210" y="3290" width="160" height="86" as="geometry" />
        </mxCell>
        <mxCell id="kplSNx-cZ_UU8S7fsbWp-31" value="&lt;div&gt;cargo_id&lt;/div&gt;" style="text;strokeColor=none;fillColor=none;spacingLeft=4;spacingRight=4;overflow=hidden;rotatable=0;points=[[0,0.5],[1,0.5]];portConstraint=eastwest;fontSize=12;whiteSpace=wrap;html=1;" parent="kplSNx-cZ_UU8S7fsbWp-30" vertex="1">
          <mxGeometry y="26" width="160" height="30" as="geometry" />
        </mxCell>
        <mxCell id="kplSNx-cZ_UU8S7fsbWp-32" value="concurso_id" style="text;strokeColor=none;fillColor=none;spacingLeft=4;spacingRight=4;overflow=hidden;rotatable=0;points=[[0,0.5],[1,0.5]];portConstraint=eastwest;fontSize=12;whiteSpace=wrap;html=1;" parent="kplSNx-cZ_UU8S7fsbWp-30" vertex="1">
          <mxGeometry y="56" width="160" height="30" as="geometry" />
        </mxCell>
        <mxCell id="kplSNx-cZ_UU8S7fsbWp-33" style="edgeStyle=orthogonalEdgeStyle;rounded=0;orthogonalLoop=1;jettySize=auto;html=1;entryX=0;entryY=0.5;entryDx=0;entryDy=0;" parent="1" source="kplSNx-cZ_UU8S7fsbWp-7" target="kplSNx-cZ_UU8S7fsbWp-31" edge="1">
          <mxGeometry relative="1" as="geometry" />
        </mxCell>
        <mxCell id="kplSNx-cZ_UU8S7fsbWp-36" value="n" style="edgeLabel;html=1;align=center;verticalAlign=middle;resizable=0;points=[];" parent="kplSNx-cZ_UU8S7fsbWp-33" vertex="1" connectable="0">
          <mxGeometry x="-0.8167" relative="1" as="geometry">
            <mxPoint as="offset" />
          </mxGeometry>
        </mxCell>
        <mxCell id="kplSNx-cZ_UU8S7fsbWp-34" style="edgeStyle=orthogonalEdgeStyle;rounded=0;orthogonalLoop=1;jettySize=auto;html=1;entryX=0.031;entryY=0.8;entryDx=0;entryDy=0;entryPerimeter=0;" parent="1" source="kplSNx-cZ_UU8S7fsbWp-16" target="kplSNx-cZ_UU8S7fsbWp-32" edge="1">
          <mxGeometry relative="1" as="geometry" />
        </mxCell>
        <mxCell id="kplSNx-cZ_UU8S7fsbWp-35" value="n" style="edgeLabel;html=1;align=center;verticalAlign=middle;resizable=0;points=[];" parent="kplSNx-cZ_UU8S7fsbWp-34" vertex="1" connectable="0">
          <mxGeometry x="0.8999" y="-3" relative="1" as="geometry">
            <mxPoint as="offset" />
          </mxGeometry>
        </mxCell>
        <mxCell id="kplSNx-cZ_UU8S7fsbWp-37" value="n" style="edgeLabel;html=1;align=center;verticalAlign=middle;resizable=0;points=[];" parent="kplSNx-cZ_UU8S7fsbWp-34" vertex="1" connectable="0">
          <mxGeometry x="0.6572" y="3" relative="1" as="geometry">
            <mxPoint as="offset" />
          </mxGeometry>
        </mxCell>
        <mxCell id="kplSNx-cZ_UU8S7fsbWp-38" value="n" style="edgeLabel;html=1;align=center;verticalAlign=middle;resizable=0;points=[];" parent="kplSNx-cZ_UU8S7fsbWp-34" vertex="1" connectable="0">
          <mxGeometry x="-0.9367" y="-2" relative="1" as="geometry">
            <mxPoint as="offset" />
          </mxGeometry>
        </mxCell>
        <mxCell id="kplSNx-cZ_UU8S7fsbWp-39" style="edgeStyle=orthogonalEdgeStyle;rounded=0;orthogonalLoop=1;jettySize=auto;html=1;entryX=0;entryY=0.5;entryDx=0;entryDy=0;" parent="1" source="kplSNx-cZ_UU8S7fsbWp-3" target="kplSNx-cZ_UU8S7fsbWp-12" edge="1">
          <mxGeometry relative="1" as="geometry" />
        </mxCell>
        <mxCell id="kplSNx-cZ_UU8S7fsbWp-40" value="n" style="edgeLabel;html=1;align=center;verticalAlign=middle;resizable=0;points=[];" parent="kplSNx-cZ_UU8S7fsbWp-39" vertex="1" connectable="0">
          <mxGeometry x="0.9222" relative="1" as="geometry">
            <mxPoint as="offset" />
          </mxGeometry>
        </mxCell>
        <mxCell id="kplSNx-cZ_UU8S7fsbWp-41" value="n" style="edgeLabel;html=1;align=center;verticalAlign=middle;resizable=0;points=[];" parent="kplSNx-cZ_UU8S7fsbWp-39" vertex="1" connectable="0">
          <mxGeometry x="-0.9222" y="1" relative="1" as="geometry">
            <mxPoint as="offset" />
          </mxGeometry>
        </mxCell>
        <mxCell id="kplSNx-cZ_UU8S7fsbWp-42" value="&#xa;inscricao&#xa;" style="swimlane;fontStyle=0;childLayout=stackLayout;horizontal=1;startSize=26;horizontalStack=0;resizeParent=1;resizeParentMax=0;resizeLast=0;collapsible=1;marginBottom=0;align=center;fontSize=14;" parent="1" vertex="1">
          <mxGeometry x="220" y="3420" width="160" height="146" as="geometry" />
        </mxCell>
        <mxCell id="kplSNx-cZ_UU8S7fsbWp-43" value="id&lt;div&gt;&lt;br&gt;&lt;/div&gt;" style="text;strokeColor=none;fillColor=none;spacingLeft=4;spacingRight=4;overflow=hidden;rotatable=0;points=[[0,0.5],[1,0.5]];portConstraint=eastwest;fontSize=12;whiteSpace=wrap;html=1;" parent="kplSNx-cZ_UU8S7fsbWp-42" vertex="1">
          <mxGeometry y="26" width="160" height="30" as="geometry" />
        </mxCell>
        <mxCell id="kplSNx-cZ_UU8S7fsbWp-44" value="candidato_id" style="text;strokeColor=none;fillColor=none;spacingLeft=4;spacingRight=4;overflow=hidden;rotatable=0;points=[[0,0.5],[1,0.5]];portConstraint=eastwest;fontSize=12;whiteSpace=wrap;html=1;" parent="kplSNx-cZ_UU8S7fsbWp-42" vertex="1">
          <mxGeometry y="56" width="160" height="30" as="geometry" />
        </mxCell>
        <mxCell id="kplSNx-cZ_UU8S7fsbWp-48" value="cargo_id" style="text;strokeColor=none;fillColor=none;spacingLeft=4;spacingRight=4;overflow=hidden;rotatable=0;points=[[0,0.5],[1,0.5]];portConstraint=eastwest;fontSize=12;whiteSpace=wrap;html=1;" parent="kplSNx-cZ_UU8S7fsbWp-42" vertex="1">
          <mxGeometry y="86" width="160" height="30" as="geometry" />
        </mxCell>
        <mxCell id="kplSNx-cZ_UU8S7fsbWp-50" value="concurso_id" style="text;strokeColor=none;fillColor=none;spacingLeft=4;spacingRight=4;overflow=hidden;rotatable=0;points=[[0,0.5],[1,0.5]];portConstraint=eastwest;fontSize=12;whiteSpace=wrap;html=1;" parent="kplSNx-cZ_UU8S7fsbWp-42" vertex="1">
          <mxGeometry y="116" width="160" height="30" as="geometry" />
        </mxCell>
        <mxCell id="kplSNx-cZ_UU8S7fsbWp-51" style="edgeStyle=orthogonalEdgeStyle;rounded=0;orthogonalLoop=1;jettySize=auto;html=1;exitX=1;exitY=0.5;exitDx=0;exitDy=0;entryX=1;entryY=0.5;entryDx=0;entryDy=0;" parent="1" source="kplSNx-cZ_UU8S7fsbWp-18" target="kplSNx-cZ_UU8S7fsbWp-43" edge="1">
          <mxGeometry relative="1" as="geometry" />
        </mxCell>
        <mxCell id="kplSNx-cZ_UU8S7fsbWp-52" value="n" style="edgeLabel;html=1;align=center;verticalAlign=middle;resizable=0;points=[];" parent="kplSNx-cZ_UU8S7fsbWp-51" vertex="1" connectable="0">
          <mxGeometry x="0.9404" y="1" relative="1" as="geometry">
            <mxPoint as="offset" />
          </mxGeometry>
        </mxCell>
        <mxCell id="kplSNx-cZ_UU8S7fsbWp-53" value="n" style="edgeLabel;html=1;align=center;verticalAlign=middle;resizable=0;points=[];" parent="kplSNx-cZ_UU8S7fsbWp-51" vertex="1" connectable="0">
          <mxGeometry x="-0.9447" relative="1" as="geometry">
            <mxPoint as="offset" />
          </mxGeometry>
        </mxCell>
        <mxCell id="kplSNx-cZ_UU8S7fsbWp-54" value="" style="rounded=0;whiteSpace=wrap;html=1;fillColor=#f5f5f5;strokeColor=#666666;fontColor=#333333;" parent="1" vertex="1">
          <mxGeometry x="-90" y="3770" width="870" height="740" as="geometry" />
        </mxCell>
        <mxCell id="kplSNx-cZ_UU8S7fsbWp-55" value="Ex-08(CONTRATOS)" style="rounded=0;whiteSpace=wrap;html=1;" parent="1" vertex="1">
          <mxGeometry x="-60" y="3790" width="120" height="60" as="geometry" />
        </mxCell>
        <mxCell id="kplSNx-cZ_UU8S7fsbWp-56" value="&#xa;fornecedor&#xa;" style="swimlane;fontStyle=0;childLayout=stackLayout;horizontal=1;startSize=26;horizontalStack=0;resizeParent=1;resizeParentMax=0;resizeLast=0;collapsible=1;marginBottom=0;align=center;fontSize=14;" parent="1" vertex="1">
          <mxGeometry x="-50" y="3920" width="160" height="116" as="geometry" />
        </mxCell>
        <mxCell id="kplSNx-cZ_UU8S7fsbWp-57" value="id&lt;div&gt;&lt;br&gt;&lt;/div&gt;" style="text;strokeColor=none;fillColor=none;spacingLeft=4;spacingRight=4;overflow=hidden;rotatable=0;points=[[0,0.5],[1,0.5]];portConstraint=eastwest;fontSize=12;whiteSpace=wrap;html=1;" parent="kplSNx-cZ_UU8S7fsbWp-56" vertex="1">
          <mxGeometry y="26" width="160" height="30" as="geometry" />
        </mxCell>
        <mxCell id="kplSNx-cZ_UU8S7fsbWp-58" value="nome" style="text;strokeColor=none;fillColor=none;spacingLeft=4;spacingRight=4;overflow=hidden;rotatable=0;points=[[0,0.5],[1,0.5]];portConstraint=eastwest;fontSize=12;whiteSpace=wrap;html=1;" parent="kplSNx-cZ_UU8S7fsbWp-56" vertex="1">
          <mxGeometry y="56" width="160" height="30" as="geometry" />
        </mxCell>
        <mxCell id="kplSNx-cZ_UU8S7fsbWp-69" value="cnpj" style="text;strokeColor=none;fillColor=none;spacingLeft=4;spacingRight=4;overflow=hidden;rotatable=0;points=[[0,0.5],[1,0.5]];portConstraint=eastwest;fontSize=12;whiteSpace=wrap;html=1;" parent="kplSNx-cZ_UU8S7fsbWp-56" vertex="1">
          <mxGeometry y="86" width="160" height="30" as="geometry" />
        </mxCell>
        <mxCell id="kplSNx-cZ_UU8S7fsbWp-62" value="&#xa;contrato&#xa;" style="swimlane;fontStyle=0;childLayout=stackLayout;horizontal=1;startSize=26;horizontalStack=0;resizeParent=1;resizeParentMax=0;resizeLast=0;collapsible=1;marginBottom=0;align=center;fontSize=14;" parent="1" vertex="1">
          <mxGeometry x="140" y="3804" width="120" height="110" as="geometry" />
        </mxCell>
        <mxCell id="kplSNx-cZ_UU8S7fsbWp-63" value="id&lt;div&gt;&lt;br&gt;&lt;/div&gt;" style="text;strokeColor=none;fillColor=none;spacingLeft=4;spacingRight=4;overflow=hidden;rotatable=0;points=[[0,0.5],[1,0.5]];portConstraint=eastwest;fontSize=12;whiteSpace=wrap;html=1;" parent="kplSNx-cZ_UU8S7fsbWp-62" vertex="1">
          <mxGeometry y="26" width="120" height="36" as="geometry" />
        </mxCell>
        <mxCell id="kplSNx-cZ_UU8S7fsbWp-64" value="nome" style="text;strokeColor=none;fillColor=none;spacingLeft=4;spacingRight=4;overflow=hidden;rotatable=0;points=[[0,0.5],[1,0.5]];portConstraint=eastwest;fontSize=12;whiteSpace=wrap;html=1;" parent="kplSNx-cZ_UU8S7fsbWp-62" vertex="1">
          <mxGeometry y="62" width="120" height="30" as="geometry" />
        </mxCell>
        <mxCell id="kplSNx-cZ_UU8S7fsbWp-68" value="tipo&lt;div&gt;&lt;br&gt;&lt;/div&gt;" style="text;strokeColor=none;fillColor=none;spacingLeft=4;spacingRight=4;overflow=hidden;rotatable=0;points=[[0,0.5],[1,0.5]];portConstraint=eastwest;fontSize=12;whiteSpace=wrap;html=1;" parent="kplSNx-cZ_UU8S7fsbWp-62" vertex="1">
          <mxGeometry y="92" width="120" height="18" as="geometry" />
        </mxCell>
        <mxCell id="kplSNx-cZ_UU8S7fsbWp-75" style="edgeStyle=orthogonalEdgeStyle;rounded=0;orthogonalLoop=1;jettySize=auto;html=1;exitX=1;exitY=0.5;exitDx=0;exitDy=0;entryX=0;entryY=0.5;entryDx=0;entryDy=0;" parent="1" source="kplSNx-cZ_UU8S7fsbWp-57" target="kplSNx-cZ_UU8S7fsbWp-63" edge="1">
          <mxGeometry relative="1" as="geometry" />
        </mxCell>
        <mxCell id="kplSNx-cZ_UU8S7fsbWp-76" value="n" style="edgeLabel;html=1;align=center;verticalAlign=middle;resizable=0;points=[];" parent="kplSNx-cZ_UU8S7fsbWp-75" vertex="1" connectable="0">
          <mxGeometry x="-0.8548" y="2" relative="1" as="geometry">
            <mxPoint as="offset" />
          </mxGeometry>
        </mxCell>
        <mxCell id="kplSNx-cZ_UU8S7fsbWp-77" value="n" style="edgeLabel;html=1;align=center;verticalAlign=middle;resizable=0;points=[];" parent="kplSNx-cZ_UU8S7fsbWp-75" vertex="1" connectable="0">
          <mxGeometry x="0.7688" y="4" relative="1" as="geometry">
            <mxPoint x="-1" as="offset" />
          </mxGeometry>
        </mxCell>
        <mxCell id="kplSNx-cZ_UU8S7fsbWp-78" value="contrato_fornecedor" style="swimlane;fontStyle=0;childLayout=stackLayout;horizontal=1;startSize=26;horizontalStack=0;resizeParent=1;resizeParentMax=0;resizeLast=0;collapsible=1;marginBottom=0;align=center;fontSize=14;" parent="1" vertex="1">
          <mxGeometry x="320" y="4036" width="160" height="82" as="geometry" />
        </mxCell>
        <mxCell id="kplSNx-cZ_UU8S7fsbWp-79" value="contrato_id" style="text;strokeColor=none;fillColor=none;spacingLeft=4;spacingRight=4;overflow=hidden;rotatable=0;points=[[0,0.5],[1,0.5]];portConstraint=eastwest;fontSize=12;whiteSpace=wrap;html=1;" parent="kplSNx-cZ_UU8S7fsbWp-78" vertex="1">
          <mxGeometry y="26" width="160" height="26" as="geometry" />
        </mxCell>
        <mxCell id="kplSNx-cZ_UU8S7fsbWp-80" value="forncedor_id" style="text;strokeColor=none;fillColor=none;spacingLeft=4;spacingRight=4;overflow=hidden;rotatable=0;points=[[0,0.5],[1,0.5]];portConstraint=eastwest;fontSize=12;whiteSpace=wrap;html=1;" parent="kplSNx-cZ_UU8S7fsbWp-78" vertex="1">
          <mxGeometry y="52" width="160" height="30" as="geometry" />
        </mxCell>
        <mxCell id="kplSNx-cZ_UU8S7fsbWp-81" style="edgeStyle=orthogonalEdgeStyle;rounded=0;orthogonalLoop=1;jettySize=auto;html=1;exitX=1;exitY=0.5;exitDx=0;exitDy=0;entryX=0;entryY=0.5;entryDx=0;entryDy=0;" parent="1" source="kplSNx-cZ_UU8S7fsbWp-63" target="kplSNx-cZ_UU8S7fsbWp-78" edge="1">
          <mxGeometry relative="1" as="geometry">
            <Array as="points">
              <mxPoint x="280" y="3848" />
              <mxPoint x="280" y="4071" />
            </Array>
          </mxGeometry>
        </mxCell>
        <mxCell id="kplSNx-cZ_UU8S7fsbWp-83" value="n" style="edgeLabel;html=1;align=center;verticalAlign=middle;resizable=0;points=[];" parent="kplSNx-cZ_UU8S7fsbWp-81" vertex="1" connectable="0">
          <mxGeometry x="-0.8706" y="-1" relative="1" as="geometry">
            <mxPoint as="offset" />
          </mxGeometry>
        </mxCell>
        <mxCell id="kplSNx-cZ_UU8S7fsbWp-84" value="1" style="edgeLabel;html=1;align=center;verticalAlign=middle;resizable=0;points=[];" parent="kplSNx-cZ_UU8S7fsbWp-81" vertex="1" connectable="0">
          <mxGeometry x="0.8934" y="-4" relative="1" as="geometry">
            <mxPoint x="-1" as="offset" />
          </mxGeometry>
        </mxCell>
        <mxCell id="kplSNx-cZ_UU8S7fsbWp-82" style="edgeStyle=orthogonalEdgeStyle;rounded=0;orthogonalLoop=1;jettySize=auto;html=1;" parent="1" source="kplSNx-cZ_UU8S7fsbWp-57" target="kplSNx-cZ_UU8S7fsbWp-80" edge="1">
          <mxGeometry relative="1" as="geometry" />
        </mxCell>
        <mxCell id="kplSNx-cZ_UU8S7fsbWp-85" value="n" style="edgeLabel;html=1;align=center;verticalAlign=middle;resizable=0;points=[];" parent="kplSNx-cZ_UU8S7fsbWp-82" vertex="1" connectable="0">
          <mxGeometry x="0.8932" y="2" relative="1" as="geometry">
            <mxPoint as="offset" />
          </mxGeometry>
        </mxCell>
        <mxCell id="kplSNx-cZ_UU8S7fsbWp-86" value="" style="rounded=0;whiteSpace=wrap;html=1;fillColor=#f5f5f5;strokeColor=#666666;fontColor=#333333;" parent="1" vertex="1">
          <mxGeometry x="-90" y="4530" width="870" height="740" as="geometry" />
        </mxCell>
        <mxCell id="kplSNx-cZ_UU8S7fsbWp-87" value="Ex-09(EQUIPAMENTOS)" style="rounded=0;whiteSpace=wrap;html=1;" parent="1" vertex="1">
          <mxGeometry x="-60" y="4560" width="140" height="60" as="geometry" />
        </mxCell>
        <mxCell id="kplSNx-cZ_UU8S7fsbWp-88" value="&#xa;departamento&#xa;" style="swimlane;fontStyle=0;childLayout=stackLayout;horizontal=1;startSize=26;horizontalStack=0;resizeParent=1;resizeParentMax=0;resizeLast=0;collapsible=1;marginBottom=0;align=center;fontSize=14;" parent="1" vertex="1">
          <mxGeometry x="-60" y="4660" width="160" height="116" as="geometry" />
        </mxCell>
        <mxCell id="kplSNx-cZ_UU8S7fsbWp-89" value="id&lt;div&gt;&lt;br&gt;&lt;/div&gt;" style="text;strokeColor=none;fillColor=none;spacingLeft=4;spacingRight=4;overflow=hidden;rotatable=0;points=[[0,0.5],[1,0.5]];portConstraint=eastwest;fontSize=12;whiteSpace=wrap;html=1;" parent="kplSNx-cZ_UU8S7fsbWp-88" vertex="1">
          <mxGeometry y="26" width="160" height="30" as="geometry" />
        </mxCell>
        <mxCell id="kplSNx-cZ_UU8S7fsbWp-90" value="nome" style="text;strokeColor=none;fillColor=none;spacingLeft=4;spacingRight=4;overflow=hidden;rotatable=0;points=[[0,0.5],[1,0.5]];portConstraint=eastwest;fontSize=12;whiteSpace=wrap;html=1;" parent="kplSNx-cZ_UU8S7fsbWp-88" vertex="1">
          <mxGeometry y="56" width="160" height="30" as="geometry" />
        </mxCell>
        <mxCell id="kplSNx-cZ_UU8S7fsbWp-91" value="tipo&lt;div&gt;&lt;br&gt;&lt;/div&gt;" style="text;strokeColor=none;fillColor=none;spacingLeft=4;spacingRight=4;overflow=hidden;rotatable=0;points=[[0,0.5],[1,0.5]];portConstraint=eastwest;fontSize=12;whiteSpace=wrap;html=1;" parent="kplSNx-cZ_UU8S7fsbWp-88" vertex="1">
          <mxGeometry y="86" width="160" height="30" as="geometry" />
        </mxCell>
        <mxCell id="kplSNx-cZ_UU8S7fsbWp-92" value="tipo-equipamento" style="swimlane;fontStyle=0;childLayout=stackLayout;horizontal=1;startSize=26;horizontalStack=0;resizeParent=1;resizeParentMax=0;resizeLast=0;collapsible=1;marginBottom=0;align=center;fontSize=14;" parent="1" vertex="1">
          <mxGeometry x="450" y="4680" width="160" height="116" as="geometry" />
        </mxCell>
        <mxCell id="kplSNx-cZ_UU8S7fsbWp-93" value="id&lt;div&gt;&lt;br&gt;&lt;/div&gt;" style="text;strokeColor=none;fillColor=none;spacingLeft=4;spacingRight=4;overflow=hidden;rotatable=0;points=[[0,0.5],[1,0.5]];portConstraint=eastwest;fontSize=12;whiteSpace=wrap;html=1;" parent="kplSNx-cZ_UU8S7fsbWp-92" vertex="1">
          <mxGeometry y="26" width="160" height="30" as="geometry" />
        </mxCell>
        <mxCell id="kplSNx-cZ_UU8S7fsbWp-94" value="nome" style="text;strokeColor=none;fillColor=none;spacingLeft=4;spacingRight=4;overflow=hidden;rotatable=0;points=[[0,0.5],[1,0.5]];portConstraint=eastwest;fontSize=12;whiteSpace=wrap;html=1;" parent="kplSNx-cZ_UU8S7fsbWp-92" vertex="1">
          <mxGeometry y="56" width="160" height="30" as="geometry" />
        </mxCell>
        <mxCell id="kplSNx-cZ_UU8S7fsbWp-95" value="tipo&lt;div&gt;&lt;br&gt;&lt;/div&gt;" style="text;strokeColor=none;fillColor=none;spacingLeft=4;spacingRight=4;overflow=hidden;rotatable=0;points=[[0,0.5],[1,0.5]];portConstraint=eastwest;fontSize=12;whiteSpace=wrap;html=1;" parent="kplSNx-cZ_UU8S7fsbWp-92" vertex="1">
          <mxGeometry y="86" width="160" height="30" as="geometry" />
        </mxCell>
        <mxCell id="kplSNx-cZ_UU8S7fsbWp-96" value="empregado" style="swimlane;fontStyle=0;childLayout=stackLayout;horizontal=1;startSize=26;horizontalStack=0;resizeParent=1;resizeParentMax=0;resizeLast=0;collapsible=1;marginBottom=0;align=center;fontSize=14;" parent="1" vertex="1">
          <mxGeometry x="185" y="4600" width="160" height="116" as="geometry" />
        </mxCell>
        <mxCell id="kplSNx-cZ_UU8S7fsbWp-97" value="id&lt;div&gt;&lt;br&gt;&lt;/div&gt;" style="text;strokeColor=none;fillColor=none;spacingLeft=4;spacingRight=4;overflow=hidden;rotatable=0;points=[[0,0.5],[1,0.5]];portConstraint=eastwest;fontSize=12;whiteSpace=wrap;html=1;" parent="kplSNx-cZ_UU8S7fsbWp-96" vertex="1">
          <mxGeometry y="26" width="160" height="30" as="geometry" />
        </mxCell>
        <mxCell id="kplSNx-cZ_UU8S7fsbWp-98" value="nome" style="text;strokeColor=none;fillColor=none;spacingLeft=4;spacingRight=4;overflow=hidden;rotatable=0;points=[[0,0.5],[1,0.5]];portConstraint=eastwest;fontSize=12;whiteSpace=wrap;html=1;" parent="kplSNx-cZ_UU8S7fsbWp-96" vertex="1">
          <mxGeometry y="56" width="160" height="30" as="geometry" />
        </mxCell>
        <mxCell id="kplSNx-cZ_UU8S7fsbWp-99" value="&lt;div&gt;departamento_id&lt;/div&gt;" style="text;strokeColor=none;fillColor=none;spacingLeft=4;spacingRight=4;overflow=hidden;rotatable=0;points=[[0,0.5],[1,0.5]];portConstraint=eastwest;fontSize=12;whiteSpace=wrap;html=1;" parent="kplSNx-cZ_UU8S7fsbWp-96" vertex="1">
          <mxGeometry y="86" width="160" height="30" as="geometry" />
        </mxCell>
        <mxCell id="kplSNx-cZ_UU8S7fsbWp-105" value="" style="rounded=0;whiteSpace=wrap;html=1;fillColor=#f5f5f5;strokeColor=#666666;fontColor=#333333;" parent="1" vertex="1">
          <mxGeometry x="-85" y="5320" width="870" height="740" as="geometry" />
        </mxCell>
        <mxCell id="kplSNx-cZ_UU8S7fsbWp-106" value="Ex-10(HOSPEDAGEM)" style="rounded=0;whiteSpace=wrap;html=1;" parent="1" vertex="1">
          <mxGeometry x="-70" y="5340" width="140" height="60" as="geometry" />
        </mxCell>
        <mxCell id="kplSNx-cZ_UU8S7fsbWp-107" value="cliente" style="swimlane;fontStyle=0;childLayout=stackLayout;horizontal=1;startSize=26;horizontalStack=0;resizeParent=1;resizeParentMax=0;resizeLast=0;collapsible=1;marginBottom=0;align=center;fontSize=14;" parent="1" vertex="1">
          <mxGeometry x="-50" y="5490" width="160" height="86" as="geometry" />
        </mxCell>
        <mxCell id="kplSNx-cZ_UU8S7fsbWp-108" value="id&lt;div&gt;&lt;br&gt;&lt;/div&gt;" style="text;strokeColor=none;fillColor=none;spacingLeft=4;spacingRight=4;overflow=hidden;rotatable=0;points=[[0,0.5],[1,0.5]];portConstraint=eastwest;fontSize=12;whiteSpace=wrap;html=1;" parent="kplSNx-cZ_UU8S7fsbWp-107" vertex="1">
          <mxGeometry y="26" width="160" height="30" as="geometry" />
        </mxCell>
        <mxCell id="kplSNx-cZ_UU8S7fsbWp-109" value="nome" style="text;strokeColor=none;fillColor=none;spacingLeft=4;spacingRight=4;overflow=hidden;rotatable=0;points=[[0,0.5],[1,0.5]];portConstraint=eastwest;fontSize=12;whiteSpace=wrap;html=1;" parent="kplSNx-cZ_UU8S7fsbWp-107" vertex="1">
          <mxGeometry y="56" width="160" height="30" as="geometry" />
        </mxCell>
        <mxCell id="kplSNx-cZ_UU8S7fsbWp-111" value="cliente" style="swimlane;fontStyle=0;childLayout=stackLayout;horizontal=1;startSize=26;horizontalStack=0;resizeParent=1;resizeParentMax=0;resizeLast=0;collapsible=1;marginBottom=0;align=center;fontSize=14;" parent="1" vertex="1">
          <mxGeometry x="240" y="5460" width="160" height="86" as="geometry" />
        </mxCell>
        <mxCell id="kplSNx-cZ_UU8S7fsbWp-112" value="id&lt;div&gt;&lt;br&gt;&lt;/div&gt;" style="text;strokeColor=none;fillColor=none;spacingLeft=4;spacingRight=4;overflow=hidden;rotatable=0;points=[[0,0.5],[1,0.5]];portConstraint=eastwest;fontSize=12;whiteSpace=wrap;html=1;" parent="kplSNx-cZ_UU8S7fsbWp-111" vertex="1">
          <mxGeometry y="26" width="160" height="30" as="geometry" />
        </mxCell>
        <mxCell id="kplSNx-cZ_UU8S7fsbWp-113" value="nome" style="text;strokeColor=none;fillColor=none;spacingLeft=4;spacingRight=4;overflow=hidden;rotatable=0;points=[[0,0.5],[1,0.5]];portConstraint=eastwest;fontSize=12;whiteSpace=wrap;html=1;" parent="kplSNx-cZ_UU8S7fsbWp-111" vertex="1">
          <mxGeometry y="56" width="160" height="30" as="geometry" />
        </mxCell>
        <mxCell id="kplSNx-cZ_UU8S7fsbWp-114" value="cliente" style="swimlane;fontStyle=0;childLayout=stackLayout;horizontal=1;startSize=26;horizontalStack=0;resizeParent=1;resizeParentMax=0;resizeLast=0;collapsible=1;marginBottom=0;align=center;fontSize=14;" parent="1" vertex="1">
          <mxGeometry x="510" y="5490" width="160" height="86" as="geometry" />
        </mxCell>
        <mxCell id="kplSNx-cZ_UU8S7fsbWp-115" value="id&lt;div&gt;&lt;br&gt;&lt;/div&gt;" style="text;strokeColor=none;fillColor=none;spacingLeft=4;spacingRight=4;overflow=hidden;rotatable=0;points=[[0,0.5],[1,0.5]];portConstraint=eastwest;fontSize=12;whiteSpace=wrap;html=1;" parent="kplSNx-cZ_UU8S7fsbWp-114" vertex="1">
          <mxGeometry y="26" width="160" height="30" as="geometry" />
        </mxCell>
        <mxCell id="kplSNx-cZ_UU8S7fsbWp-116" value="nome" style="text;strokeColor=none;fillColor=none;spacingLeft=4;spacingRight=4;overflow=hidden;rotatable=0;points=[[0,0.5],[1,0.5]];portConstraint=eastwest;fontSize=12;whiteSpace=wrap;html=1;" parent="kplSNx-cZ_UU8S7fsbWp-114" vertex="1">
          <mxGeometry y="56" width="160" height="30" as="geometry" />
        </mxCell>
        <mxCell id="L16EG1bmEKlmM8jl6Q1B-1" value="partido" style="swimlane;fontStyle=0;childLayout=stackLayout;horizontal=1;startSize=26;horizontalStack=0;resizeParent=1;resizeParentMax=0;resizeLast=0;collapsible=1;marginBottom=0;align=center;fontSize=14;" vertex="1" parent="1">
          <mxGeometry x="-530" y="2637" width="160" height="86" as="geometry" />
        </mxCell>
        <mxCell id="L16EG1bmEKlmM8jl6Q1B-2" value="id&lt;div&gt;&lt;br&gt;&lt;/div&gt;" style="text;strokeColor=none;fillColor=none;spacingLeft=4;spacingRight=4;overflow=hidden;rotatable=0;points=[[0,0.5],[1,0.5]];portConstraint=eastwest;fontSize=12;whiteSpace=wrap;html=1;" vertex="1" parent="L16EG1bmEKlmM8jl6Q1B-1">
          <mxGeometry y="26" width="160" height="30" as="geometry" />
        </mxCell>
        <mxCell id="L16EG1bmEKlmM8jl6Q1B-3" value="sigla" style="text;strokeColor=none;fillColor=none;spacingLeft=4;spacingRight=4;overflow=hidden;rotatable=0;points=[[0,0.5],[1,0.5]];portConstraint=eastwest;fontSize=12;whiteSpace=wrap;html=1;" vertex="1" parent="L16EG1bmEKlmM8jl6Q1B-1">
          <mxGeometry y="56" width="160" height="30" as="geometry" />
        </mxCell>
        <mxCell id="L16EG1bmEKlmM8jl6Q1B-5" value="Zona" style="swimlane;fontStyle=0;childLayout=stackLayout;horizontal=1;startSize=26;horizontalStack=0;resizeParent=1;resizeParentMax=0;resizeLast=0;collapsible=1;marginBottom=0;align=center;fontSize=14;" vertex="1" parent="1">
          <mxGeometry x="590" y="2724" width="160" height="86" as="geometry" />
        </mxCell>
        <mxCell id="L16EG1bmEKlmM8jl6Q1B-6" value="id&lt;div&gt;&lt;br&gt;&lt;/div&gt;" style="text;strokeColor=none;fillColor=none;spacingLeft=4;spacingRight=4;overflow=hidden;rotatable=0;points=[[0,0.5],[1,0.5]];portConstraint=eastwest;fontSize=12;whiteSpace=wrap;html=1;" vertex="1" parent="L16EG1bmEKlmM8jl6Q1B-5">
          <mxGeometry y="26" width="160" height="30" as="geometry" />
        </mxCell>
        <mxCell id="L16EG1bmEKlmM8jl6Q1B-7" value="sigla" style="text;strokeColor=none;fillColor=none;spacingLeft=4;spacingRight=4;overflow=hidden;rotatable=0;points=[[0,0.5],[1,0.5]];portConstraint=eastwest;fontSize=12;whiteSpace=wrap;html=1;" vertex="1" parent="L16EG1bmEKlmM8jl6Q1B-5">
          <mxGeometry y="56" width="160" height="30" as="geometry" />
        </mxCell>
        <mxCell id="L16EG1bmEKlmM8jl6Q1B-8" value="Secao" style="swimlane;fontStyle=0;childLayout=stackLayout;horizontal=1;startSize=26;horizontalStack=0;resizeParent=1;resizeParentMax=0;resizeLast=0;collapsible=1;marginBottom=0;align=center;fontSize=14;" vertex="1" parent="1">
          <mxGeometry x="595" y="2825" width="160" height="86" as="geometry" />
        </mxCell>
        <mxCell id="L16EG1bmEKlmM8jl6Q1B-9" value="id&lt;div&gt;&lt;br&gt;&lt;/div&gt;" style="text;strokeColor=none;fillColor=none;spacingLeft=4;spacingRight=4;overflow=hidden;rotatable=0;points=[[0,0.5],[1,0.5]];portConstraint=eastwest;fontSize=12;whiteSpace=wrap;html=1;" vertex="1" parent="L16EG1bmEKlmM8jl6Q1B-8">
          <mxGeometry y="26" width="160" height="30" as="geometry" />
        </mxCell>
        <mxCell id="L16EG1bmEKlmM8jl6Q1B-10" value="sigla" style="text;strokeColor=none;fillColor=none;spacingLeft=4;spacingRight=4;overflow=hidden;rotatable=0;points=[[0,0.5],[1,0.5]];portConstraint=eastwest;fontSize=12;whiteSpace=wrap;html=1;" vertex="1" parent="L16EG1bmEKlmM8jl6Q1B-8">
          <mxGeometry y="56" width="160" height="30" as="geometry" />
        </mxCell>
      </root>
    </mxGraphModel>
  </diagram>
</mxfile>
